<?xml version="1.0" encoding="utf-8"?>
<!-- Generator: Adobe Illustrator 16.0.4, SVG Export Plug-In . SVG Version: 6.00 Build 0)  -->
<!DOCTYPE svg PUBLIC "-//W3C//DTD SVG 1.1//EN" "http://www.w3.org/Graphics/SVG/1.1/DTD/svg11.dtd">
<svg version="1.1" id="Layer_1" xmlns="http://www.w3.org/2000/svg" xmlns:xlink="http://www.w3.org/1999/xlink" x="0px" y="0px"
	 width="380px" height="149.76px" viewBox="-279.5 100.62 380 149.76" enable-background="new -279.5 100.62 380 149.76"
	 xml:space="preserve">
<g id="Lion">
	<path fill="#FFFFFF" d="M-181.195,147.695c-1.291-0.368-2.589-0.604-3.75-1.319c-1.084-0.668-1.929-1.771-2.712-2.756
		c-1.769-2.228-2.788-4.818-3.476-7.556c-0.688-2.744-0.924-5.562-1.525-8.322c-0.57-2.633-1.729-5.028-3.629-6.965
		c-1.885-1.922-4.197-3.041-6.822-3.571c-2.887-0.583-5.867-0.701-8.802-0.763c-1.507-0.031-3.001,0.007-4.507-0.088
		c-1.537-0.098-3.073-0.168-4.613-0.17c-3.113-0.006-6.228,0.021-9.341,0.039c-3.06,0.018-6.092,0.051-9.146,0.256
		c-3.066,0.203-6.137,0.351-9.203,0.545c-1.518,0.098-3.047,0.134-4.557,0.324c-1.505,0.188-2.998,0.473-4.5,0.688
		c-0.605,0.087-1.285,0.074-1.873,0.236c-0.513,0.142-1.213,0.662-0.521,1.064c0.527,0.307,1.08,0.576,1.669,0.741
		c0.719,0.203,1.479,0.218,2.221,0.28c3.034,0.25,6.074,0.668,9.122,0.656c3.061-0.013,6.119-0.023,9.18,0.002
		c6.108,0.055,12.276,0.191,18.34,0.975c1.438,0.185,2.89,0.292,4.315,0.527c0.685,0.114,1.361,0.277,2.046,0.385
		c0.709,0.109,1.424,0.127,2.129,0.271c0.635,0.13,1.291,0.397,1.935,0.443c0.647,0.046,1.29,0.153,1.922,0.298
		c1.306,0.297,2.63,0.766,3.778,1.462c0.947,0.575,1.701,1.401,2.191,2.396c0.592,1.199,0.797,2.56,1.135,3.844
		c0.166,0.634,0.326,1.309,0.645,1.887c0.334,0.607,0.438,1.202,0.625,1.864c0.378,1.346,0.968,2.618,1.4,3.946
		c0.188,0.574,0.656,1.174,0.484,1.803c0.365-0.325,0.703,0.667,0.82,0.894c0.27,0.524,0.521,1.056,0.79,1.582
		c0.267,0.526,0.547,1.046,0.87,1.54c0.354,0.543,0.769,1.035,1.088,1.602c0.583,1.033,1.011,2.146,1.74,3.094
		c0.725,0.938,1.51,1.896,2.34,2.742c0.627,0.639,1.66,1.669,2.633,1.644c0.482-0.013,0.75-0.384,0.99-0.751
		c0.345-0.525,0.761-1.002,1.217-1.434c0.879-0.829,1.855-1.566,2.761-2.37c0.397-0.354,0.854-0.648,1.015-1.179
		C-180.639,148.035-180.745,147.824-181.195,147.695C-181.658,147.562-180.646,147.852-181.195,147.695z"/>
	<path fill="#FFFFFF" d="M-209.822,124.02c-3.012-0.611-6.062-0.939-9.104-1.355c-0.717-0.098-1.434-0.189-2.156-0.213
		c-0.479-0.018-1.17-0.1-1.555,0.265c-0.342,0.325-0.314,0.899-0.346,1.327c-0.047,0.648-0.045,1.309,0.071,1.949
		c0.488,2.697,3.529,3.607,5.897,3.924c1.467,0.195,2.91,0.125,4.375-0.036c1.449-0.159,2.893-0.394,4.295-0.791
		c0.595-0.169,1.214-0.347,1.771-0.618c0.262-0.129,0.516-0.277,0.795-0.369c0.286-0.093,0.588-0.069,0.879-0.149
		c0.562-0.155,1.031-0.521,1.549-0.777c0.559-0.274,0.388-0.559,0-0.933C-204.994,124.654-207.688,124.452-209.822,124.02
		C-212.419,123.492-209.678,124.049-209.822,124.02z"/>
	<path fill="#FFFFFF" d="M-213.111,136.857c-1.972,0.225-4.154-1.401-5.002-3.09c-0.186-0.369-0.354-0.795-0.257-1.211
		c0.106-0.457,0.438-1.031,0.919-1.178c1.416-0.434,2.84-0.747,4.319-0.846c2.921-0.196,5.774-1.012,8.491-2.067
		c0.635-0.247,1.266-0.528,1.916-0.728c0.459-0.143,0.69,0.005,0.906,0.418c0.312,0.601,0.5,1.255,0.66,1.91
		c0.143,0.582,0.413,1.199-0.025,1.716c-0.271,0.319-0.64,0.459-1.006,0.635c-0.535,0.259-1.037,0.581-1.533,0.909
		c-1.031,0.685-2.064,1.279-3.219,1.742c-0.535,0.214-1.08,0.406-1.629,0.586c-0.582,0.189-1.099,0.457-1.664,0.677
		C-211.167,136.693-212.165,136.594-213.111,136.857C-215.252,137.102-212.297,136.631-213.111,136.857z"/>
	<path fill="#FFFFFF" d="M-209.05,142.668c-0.546,0.046-1.074-0.429-1.45-0.766c-0.425-0.381-0.793-0.826-1.064-1.329
		c-0.252-0.466-0.416-0.972-0.502-1.493c-0.113-0.686,0.062-1.032,0.599-1.465c1.013-0.817,2.295-1.067,3.497-1.477
		c1.334-0.457,2.529-1.166,3.775-1.806c0.545-0.278,1.11-0.517,1.654-0.797c0.273-0.142,0.541-0.292,0.795-0.464
		c0.229-0.153,0.461-0.441,0.739-0.495c0.608-0.12,0.726,0.743,0.858,1.139c0.25,0.755,0.51,1.507,0.75,2.265
		c0.209,0.655-0.156,0.97-0.611,1.398c-0.502,0.473-1.012,0.936-1.535,1.382c-1.001,0.853-2.057,1.646-3.186,2.324
		C-206.027,141.864-207.498,142.713-209.05,142.668C-209.33,142.691-208.16,142.693-209.05,142.668z"/>
	<path fill="#FFFFFF" d="M-226.623,132.869c1.132-0.049,2.266-0.051,3.396-0.121c0.526-0.033,1.053-0.083,1.574-0.166
		c0.51-0.081,1.012-0.245,1.531-0.241c0.301,0.002,1.21-0.017,0.789,0.525c-0.246,0.315-1.168,0.159-1.535,0.175
		c-0.932,0.04-1.869,0.201-2.727,0.578c-0.426,0.188-0.827,0.426-1.192,0.712c-0.338,0.265-0.633,0.731-1.021,0.912
		c-0.234,0.108-0.493-0.013-0.728-0.065c-0.292-0.066-0.587-0.117-0.882-0.168c-0.505-0.086-1.01-0.148-1.445-0.439
		c-0.35-0.233-0.628-0.553-0.928-0.846c-0.212-0.207-0.62-0.842-0.057-0.936C-228.798,132.616-227.686,132.984-226.623,132.869
		C-224.443,132.775-227.398,132.953-226.623,132.869z"/>
	<path fill="#FFFFFF" d="M-238.42,125.499c2.99-0.447,5.973,0.578,8.952,0.729c1.506,0.078,2.966-0.127,4.46-0.252
		c1.318-0.111,1.535,0.959,2.136,1.885c0.297,0.459,0.552,0.863-0.198,0.935c-0.779,0.074-1.553,0.188-2.332,0.254
		c-1.486,0.127-2.98-0.088-4.463-0.209c-1.426-0.116-2.861-0.177-4.269-0.454c-1.396-0.275-2.563-0.791-3.712-1.623
		C-238.311,126.425-238.581,126.104-238.42,125.499C-237.17,125.312-238.555,126.001-238.42,125.499z"/>
	<path fill="#FFFFFF" d="M-145.111,184.859c0.172,0.904-0.131,1.798-0.203,2.695c-0.092,1.112-0.877,0.428-1.336-0.084
		c-0.476-0.527-0.863-1.144-1.049-1.834c-0.23-0.865,0.004-1.675-0.004-2.545c-0.009-0.906-0.3-1.777-0.328-2.678
		c-0.031-0.893,1.09-0.196,1.451,0.029c0.723,0.449,0.885,1.054,1.092,1.83C-145.262,183.119-144.938,183.971-145.111,184.859
		C-144.928,185.826-144.898,183.779-145.111,184.859z"/>
	<path fill="#FFFFFF" d="M-232.098,159.73c-0.076,0.291-0.207,0.655-0.557,0.689c-0.445,0.044-0.834,0.346-1.236,0.516
		c-0.914,0.389-1.899,0.564-2.887,0.603c-1.006,0.038-1.996-0.091-2.994-0.164c-0.224-0.017-0.447-0.031-0.67-0.047
		c-0.199-0.015-0.479,0.065-0.651-0.063c-0.203-0.152-0.569-0.13-0.703-0.369c-0.196-0.35,0.229-0.537,0.489-0.604
		c0.443-0.115,0.867-0.288,1.274-0.497c0.81-0.413,1.649-1.221,2.573-1.322c0.48-0.054,0.822,0.163,1.218,0.396
		c0.394,0.231,0.813,0.421,1.249,0.563C-234.061,159.732-233.07,159.803-232.098,159.73
		C-232.216,160.182-233.727,159.854-232.098,159.73z"/>
	<path fill="#FFFFFF" d="M-160.116,195.979c0.001,0.648-0.251,1.108-0.692,1.582c-0.311,0.332-1.102,1.2-1.613,1.045
		c-0.281-0.086-0.532-0.463-0.773-0.633c-0.279-0.197-0.576-0.369-0.851-0.574c-0.458-0.349-0.979-0.894-0.744-1.519
		c0.224-0.592,0.875-0.928,1.269-1.397c0.222-0.265,0.412-0.553,0.569-0.858c0.117-0.228,0.242-0.681,0.569-0.679
		c0.277,0.002,0.611,0.42,0.804,0.594c0.25,0.23,0.492,0.471,0.71,0.732C-160.448,194.779-160.148,195.318-160.116,195.979
		C-160.115,196.361-160.119,195.914-160.116,195.979z"/>
	<path fill="#FFFFFF" d="M-175.42,170.312c0.135-1.262,0.621-2.473,1.619-3.297c0.322-0.266,0.896-0.785,1.324-0.447
		c0.559,0.438,0.949,1.209,1.338,1.791c0.397,0.595,0.875,1.177,0.164,1.746c-0.564,0.451-1.197,0.582-1.902,0.617
		c-0.324,0.014-0.65,0.074-0.947,0.209c-0.292,0.135-0.506,0.373-0.787,0.518C-175.346,171.826-175.432,170.749-175.42,170.312
		C-175.271,168.934-175.432,170.811-175.42,170.312z"/>
	<path fill="#FFFFFF" d="M-182.382,180.477c0.221,0.342-0.099,0.803-0.175,1.151c-0.096,0.438-0.116,0.89-0.07,1.335
		c0.091,0.918,0.471,1.719,0.807,2.562c0.318,0.8,0.455,1.662,0.307,2.515c-0.076,0.446-0.422,1.685-1.135,1.319
		c-0.227-0.113-0.229-0.424-0.26-0.643c-0.059-0.415-0.214-0.828-0.324-1.232c-0.254-0.926-0.535-1.85-0.602-2.811
		c-0.066-0.938,0.041-1.883,0.273-2.793C-183.396,181.24-183.113,180.594-182.382,180.477
		C-182.262,180.665-183.172,180.604-182.382,180.477z"/>
	<path fill="#FFFFFF" d="M-143.759,175.48c-0.722,0.013-1.005-0.283-1.308-0.888c-0.363-0.726-0.994-1.315-1.384-2.041
		c-0.364-0.685-0.416-1.513-0.844-2.155c-0.162-0.242-0.388-0.511-0.233-0.818c0.135-0.27,0.471-0.355,0.748-0.361
		c0.486-0.009,1.041,0.004,1.452,0.301c0.46,0.33,0.61,0.922,0.753,1.438c0.227,0.822,0.486,1.643,0.581,2.493
		c0.042,0.376-0.004,0.754,0.14,1.11C-143.732,174.865-143.619,175.159-143.759,175.48
		C-144.37,175.492-143.523,174.936-143.759,175.48z"/>
	<path fill="#FFFFFF" d="M-161.879,175.689c-1.051,0.047-2.555-0.141-2.943-1.32c-0.219-0.666,0.852-0.567,1.242-0.621
		c0.589-0.081,1.338-0.057,1.862-0.361c0.608-0.353,1.263-0.3,1.911-0.1c0.449,0.14,1.106,0.318,1.012,0.923
		c-0.084,0.53-0.564,1.011-1.057,1.188C-160.443,175.609-161.252,175.759-161.879,175.689
		C-162.553,175.721-161.352,175.748-161.879,175.689z"/>
	<path fill="#FFFFFF" d="M-167.332,119.46c-0.016-1.278,1.023-1.81,2.143-2.022c0.545-0.104,1.407,0.138,1.451,0.813
		c0.021,0.333-0.334,0.633-0.457,0.931c-0.135,0.323-0.19,0.672-0.219,1.021c-0.025,0.338,0.109,1.129-0.178,1.389
		c-0.275,0.25-1.014,0.097-1.332,0.022C-166.971,121.371-167.32,120.445-167.332,119.46
		C-167.346,118.467-167.312,120.971-167.332,119.46z"/>
	<path fill="#FFFFFF" d="M-146.697,168.499c-0.544,0.054-1.207-0.308-1.691-0.528c-0.274-0.125-0.528-0.294-0.793-0.439
		c-0.272-0.152-0.616-0.211-0.863-0.401c-0.441-0.339-0.232-0.899-0.073-1.332c0.158-0.43,0.252-0.996,0.627-1.304
		c0.429-0.354,1.118-0.037,1.501,0.236c0.551,0.393,0.924,1.004,1.26,1.578c0.304,0.515,0.679,1.135,0.765,1.734
		C-145.904,168.479-146.375,168.493-146.697,168.499C-147.227,168.551-145.947,168.486-146.697,168.499z"/>
	<path fill="#FFFFFF" d="M-174.812,190.195c-0.045,0.705,0.107,1.395,0.406,2.031c0.281,0.592,0.844,1.168,0.869,1.85
		c0.021,0.529-0.443,1.347-0.918,1.586c-0.525,0.266-0.984-1.047-1.1-1.379c-0.24-0.701-0.243-1.479-0.455-2.194
		c-0.189-0.644-0.814-1.444-0.512-2.126c0.239-0.545,0.979-0.845,1.543-0.668C-174.512,189.441-174.906,189.895-174.812,190.195
		C-174.883,191.287-174.9,189.913-174.812,190.195z"/>
	<path fill="#FFFFFF" d="M-168.053,195.398c0.027,0.496-0.061,0.967-0.344,1.383c-0.226,0.328-0.572,0.822-1.013,0.518
		c-0.473-0.328-0.848-0.945-1.155-1.421c-0.332-0.515-0.598-1.092-0.619-1.713c-0.019-0.526,0.141-1.054,0.479-1.463
		c0.199-0.24,0.94-0.923,1.142-0.339c0.205,0.607,0.469,1.195,0.781,1.755C-168.562,194.505-168.092,195.04-168.053,195.398
		C-168.016,196.059-168.044,195.484-168.053,195.398z"/>
	<path fill="#FFFFFF" d="M-142.536,154.264c-0.131,0.348,0.22,0.819-0.306,0.975c-0.498,0.146-0.674-0.635-0.891-0.937
		c-0.365-0.513-0.836-0.94-1.359-1.29c-0.283-0.188-1.721-0.766-1.485-1.224c0.11-0.213,0.407-0.414,0.574-0.589
		c0.22-0.231,0.45-0.455,0.737-0.6c0.438-0.22,1.041-0.4,1.434-0.004c0.402,0.406,0.686,1.062,0.911,1.581
		C-142.635,152.836-142.48,153.543-142.536,154.264C-142.637,154.533-142.436,152.927-142.536,154.264z"/>
	<path fill="#FFFFFF" d="M-191.668,164.307c-0.009-1.217,0.877-2.074,1.854-2.664c0.562-0.338,1.195-0.576,1.861-0.502
		c0.85,0.094,0.275,0.703,0.012,1.096c-0.632,0.933-1.147,2-2.139,2.615c-0.299,0.186-0.917,0.651-1.307,0.521
		C-191.738,165.253-191.668,164.579-191.668,164.307C-191.676,163.195-191.668,164.38-191.668,164.307z"/>
	<path fill="#FFFFFF" d="M-144.419,176.533c1.005,0.406,1.433,1.451,1.698,2.428c0.176,0.648,0.25,1.324,0.209,1.996
		c-0.032,0.516-0.075,1.432-0.479,1.809c-0.397,0.373-0.706-0.07-0.969-0.354c-0.454-0.493-0.452-0.947-0.458-1.593
		C-144.434,179.391-144.419,177.961-144.419,176.533C-143.57,176.875-144.419,178.27-144.419,176.533z"/>
	<path fill="#FFFFFF" d="M-148.73,162.854c0.129-0.703,0.357-2.272,1.438-1.5c0.825,0.588,1.503,1.146,1.89,2.109
		c0.144,0.357,0.459,0.956,0.274,1.337c-0.247,0.511-0.839,0.255-1.22,0.089c-0.559-0.244-1.082-0.561-1.586-0.9
		c-0.2-0.135-0.479-0.271-0.635-0.461C-148.719,163.343-148.686,163.074-148.73,162.854
		C-148.631,162.309-148.672,163.145-148.73,162.854z"/>
	<path fill="#FFFFFF" d="M-174.786,125.357c-0.594,0.016-1.22-0.252-1.391-0.864c-0.075-0.269-0.071-0.634,0.075-0.878
		c0.217-0.367,0.608-0.043,0.886,0.053c0.389,0.135,0.8,0.188,1.208,0.229c0.222,0.022,0.658,0.035,0.693,0.336
		C-173.229,124.963-174.309,125.18-174.786,125.357C-175.857,125.384-174.466,125.239-174.786,125.357z"/>
	<path fill="#FFFFFF" d="M-174.093,190.488c0.062-1.363,0.659-2.598,1.752-3.432c0.61-0.467,1.364-0.88,2.112-1.068
		c0.248-0.062,0.703-0.18,0.85,0.126c0.072,0.151,0.016,0.321-0.01,0.477c-0.051,0.3-0.078,0.603-0.09,0.905
		c-0.019,0.48,0.006,0.963,0.043,1.443c0.035,0.422,0.168,0.914,0.045,1.33c-0.241,0.823-1.215,1.426-1.892,1.873
		c-0.429,0.282-1.417,1.191-1.94,0.725C-173.789,192.363-174.137,191.219-174.093,190.488
		C-174.012,188.695-174.141,191.275-174.093,190.488z"/>
	<path fill="#FFFFFF" d="M-168.199,189.618c-0.519-0.599-0.473-1.353-0.424-2.091c0.051-0.754,0.139-1.514,0.369-2.235
		c0.232-0.726,0.619-1.396,1.182-1.915c0.295-0.273,0.641-0.484,0.938-0.758c0.342-0.314,0.636-0.674,0.908-1.049
		c0.602-0.825,1.186,1.16,1.254,1.564c0.154,0.926-0.19,1.87-0.492,2.735c-0.15,0.43-0.325,0.851-0.534,1.254
		c-0.21,0.403-0.481,0.591-0.862,0.819C-166.688,188.436-167.432,189.045-168.199,189.618
		C-168.779,188.947-167.299,188.945-168.199,189.618z"/>
	<path fill="#FFFFFF" d="M-184.775,203.634c1.006,2.052,2.275,3.987,3.01,6.161c0.381,1.122,0.609,2.307,0.586,3.493
		c-0.014,0.635-0.103,1.271-0.27,1.883c-0.098,0.365-0.191,1.085-0.615,1.226c-0.39-0.174-0.401-0.558-0.42-0.928
		c-0.027-0.539-0.285-1.096-0.476-1.597c-0.423-1.118-0.929-2.209-1.255-3.361c-0.34-1.19-0.574-2.366-0.696-3.598
		C-185.02,205.811-185.346,204.664-184.775,203.634C-183.51,206.217-185.176,204.357-184.775,203.634z"/>
	<path fill="#FFFFFF" d="M-162.425,176.59c0.517,0.033,1.298-0.025,1.61,0.488c0.418,0.686,0.51,1.676,0.508,2.457
		c-0.002,0.958-0.226,1.9-0.568,2.791c-0.17,0.439-0.714,2.293-1.415,1.74c-1.396-1.102-1.844-3.181-1.747-4.853
		c0.045-0.756,0.166-1.556,0.412-2.276C-163.449,176.422-162.859,176.559-162.425,176.59
		C-162.238,176.602-163.562,176.509-162.425,176.59z"/>
	<path fill="#FFFFFF" d="M-172.365,175.361c-0.084-1.719,0.848-3.15,1.896-4.432c0.207-0.253,0.486-0.617,0.851-0.384
		c0.354,0.226,0.627,0.771,0.903,1.09c0.503,0.58,1.173,1.194,1.312,1.981c0.234,1.333-0.77,2.6-2.07,2.8
		c-0.48,0.074-0.965,0.123-1.444,0.19c-0.328,0.047-0.698,0.16-1.032,0.103C-172.484,176.62-172.363,175.732-172.365,175.361
		C-172.457,173.46-172.365,175.511-172.365,175.361z"/>
	<path fill="#FFFFFF" d="M-238.312,157.783c-0.484,0.785-1.549,1.102-2.359,1.432c-0.993,0.404-1.957,0.902-3.018,1.104
		c-1.035,0.195-2.092,0.177-3.139,0.135c-0.554-0.021-1.107-0.051-1.66-0.057c-0.459-0.006-0.971,0.049-1.188-0.457
		c-0.312-0.727,1.651-1.033,2.075-1.172c1.024-0.336,1.933-0.826,2.902-1.277c0.414-0.192,0.857-0.327,1.316-0.34
		c0.559-0.017,1.062,0.199,1.605,0.289C-240.628,157.628-239.45,157.508-238.312,157.783
		C-238.654,158.337-239.756,157.434-238.312,157.783z"/>
	<path fill="#FFFFFF" d="M-163.271,184.389c0.633,0.358,0.883,1.034,1.361,1.543c0.834-0.902,0.819-2.334,1.896-3.056
		c0.561,1.174,1.322,2.308,1.494,3.623c0.145,1.121-0.199,2.949-1.426,3.401c-1.072,0.396-2.168-1.155-2.648-1.926
		C-163.266,186.895-163.471,185.639-163.271,184.389C-162.578,184.783-163.639,186.691-163.271,184.389z"/>
	<path fill="#FFFFFF" d="M-148.389,173.443c-1.549-0.129-3.332-0.938-4.396-2.082c-0.566-0.61-0.01-1.264,0.375-1.803
		c0.273-0.385,0.555-0.764,0.842-1.139c0.24-0.314,0.459-0.613,0.889-0.643c0.746-0.045,1.512,0.453,1.89,1.062
		c0.442,0.712,0.87,1.44,1.166,2.228c0.215,0.569,0.499,1.358,0.379,1.98C-147.336,173.51-148.047,173.439-148.389,173.443
		C-149.82,173.325-147.251,173.434-148.389,173.443z"/>
	<path fill="#FFFFFF" d="M-150.38,173.9c0.844-0.061,1.663,0.177,2.514,0.224c0.89,0.048,1.587-0.05,2.009,0.858
		c0.379,0.815,0.599,1.694,0.689,2.586c0.077,0.758,0.286,1.988-0.405,2.533c-0.29,0.229-0.589-0.271-0.853-0.386
		c-0.334-0.146-0.674-0.257-0.995-0.433c-0.611-0.335-1.153-0.792-1.554-1.365c-0.377-0.542-0.613-1.168-0.734-1.814
		c-0.064-0.35-0.098-0.683-0.232-1.016C-150.102,174.695-150.295,174.318-150.38,173.9
		C-150.126,173.882-150.234,174.621-150.38,173.9z"/>
	<path fill="#FFFFFF" d="M-154.709,179.833c-0.043,0.394-0.039,1.492-0.721,1.274c-0.355-0.114-0.682-0.407-1.004-0.594
		c-0.418-0.244-0.853-0.473-1.25-0.75c-0.683-0.474-1.18-1.142-1.578-1.859c-0.344-0.619-0.813-1.415-0.027-1.907
		c0.699-0.437,1.168-0.981,1.575-1.687c0.153-0.266,0.399-0.494,0.729-0.439c0.397,0.064,0.467,0.5,0.562,0.818
		c0.256,0.869,0.656,1.687,0.999,2.522C-155.072,178.068-154.877,178.927-154.709,179.833
		C-154.743,180.145-154.748,179.626-154.709,179.833z"/>
	<path fill="#FFFFFF" d="M-148.236,189.973c0.004,0.432-0.013,1.145-0.629,1.021c-0.685-0.138-1.395-0.644-1.875-1.128
		c-0.648-0.653-0.957-1.543-1.31-2.371c-0.356-0.844-0.925-1.786-0.944-2.715c-0.016-0.729,0.482-0.614,1.023-0.454
		c0.871,0.255,1.809,0.358,2.604,0.827c0.719,0.422,0.914,1.061,0.949,1.852C-148.375,187.992-148.436,188.998-148.236,189.973
		C-148.225,191.029-148.445,188.949-148.236,189.973z"/>
	<path fill="#FFFFFF" d="M-150.4,176.88c0.002,0.2,0.021,0.491-0.197,0.595c-0.293,0.14-0.797-0.017-1.102-0.068
		c-0.73-0.127-1.451-0.34-2.098-0.707c-0.648-0.371-1.193-0.895-1.592-1.527c-0.291-0.464-0.799-1.271-0.573-1.847
		c0.22-0.562,1.053-1.011,1.56-1.269c0.61-0.313,1.016,0.313,1.402,0.705c0.637,0.643,1.461,1.121,1.979,1.87
		C-150.568,175.293-150.385,176.086-150.4,176.88C-150.396,177.229-150.375,175.6-150.4,176.88z"/>
	<path fill="#FFFFFF" d="M-155.479,188.88c0.338,0.156,0.677,0.313,1.015,0.474c0.2,0.092,0.522,0.319,0.758,0.277
		c0.213-0.038,0.3-0.441,0.362-0.602c0.072-0.188,0.117-0.387,0.152-0.588c0.039-0.211,0.01-0.619,0.254-0.59
		c0.356,0.045,0.607,0.703,0.765,0.994c0.221,0.404,0.409,0.824,0.565,1.258c0.311,0.863,0.563,1.871,0.441,2.793
		c-0.057,0.435-0.184,0.854-0.271,1.283c-0.062,0.303-0.23,0.562-0.562,0.584c-0.697,0.047-1.535-0.486-2.016-0.947
		C-155.287,192.594-155.218,190.499-155.479,188.88C-154.93,189.135-155.271,190.165-155.479,188.88z"/>
	<path fill="#FFFFFF" d="M-146.645,235.339c0.633-1.709,1.459-3.338,1.037-5.2c-0.142-0.625-0.566-1.275,0.27-1.5
		c0.629-0.168,1.346-0.125,1.855,0.312c0.565,0.484,0.662,1.294,0.758,1.986c0.132,0.951,0.115,1.926-0.144,2.854
		c-0.173,0.624-0.437,1.315-1.1,1.554C-144.745,235.627-145.848,235.458-146.645,235.339
		C-146.312,234.447-145.902,235.451-146.645,235.339z"/>
	<path fill="#FFFFFF" d="M-233.32,158.95c-0.404,0.13-0.857-0.028-1.231-0.181c-0.343-0.143-0.94-0.314-1.106-0.683
		c-0.1-0.222-0.158-0.674,0.154-0.744c0.441-0.098,0.912-0.139,1.359-0.213c1.104-0.183,2.176-0.444,3.248-0.759
		c0.512-0.15,1.021-0.309,1.53-0.465c0.472-0.146,0.925-0.362,1.412-0.438c0.538-0.083,0.802,0.011,0.881,0.576
		c0.05,0.358,0.101,0.67,0.209,1.017c0.154,0.492-0.114,0.811-0.571,0.991c-0.854,0.339-1.86,0.493-2.767,0.636
		C-231.234,158.848-232.277,158.924-233.32,158.95C-233.855,159.123-231.395,158.902-233.32,158.95z"/>
	<path fill="#FFFFFF" d="M-228.92,162.225c-0.827-0.041-1.656,0.072-2.458-0.193c-0.211-0.07-0.542-0.129-0.688-0.309
		c-0.209-0.255-0.025-0.658,0.19-0.842c0.28-0.236,0.683-0.373,1.001-0.554c0.348-0.197,0.688-0.403,1.035-0.601
		c0.691-0.396,1.41-0.759,2.193-0.935c0.32-0.071,0.754-0.188,1.082-0.112c0.323,0.074,0.527,0.573,0.733,0.809
		c0.339,0.387,1.37,1.187,1.261,1.772c-0.104,0.56-1.435,0.8-1.882,0.868C-227.268,162.254-228.098,162.218-228.92,162.225
		C-229.654,162.188-227.42,162.212-228.92,162.225z"/>
	<path fill="#FFFFFF" d="M-188.432,157.534c-1.119,0.245-2.199,0.764-2.896,1.698c-0.357,0.479-0.598,1.037-0.74,1.617
		c-0.129,0.516,1.469,0.121,1.741,0.199c-0.972,1.816-3.702,1.428-5.241,0.639c-2.242-1.146-2.89-3.951-1.377-5.979
		c0.775-1.039,1.877-1.816,2.762-2.761c0.447-0.479,0.867-0.984,1.229-1.529c0.284-0.426,0.774-0.931,1.277-0.458
		c0.472,0.443,0.848,1.01,1.297,1.479c0.53,0.553,1.104,1.063,1.668,1.582c0.133,0.121,0.264,0.24,0.396,0.361
		c-0.078,0.111-0.154,0.227-0.236,0.334c-0.163,0.213-0.338,0.285-0.57,0.401c-0.416,0.209-0.988,0.784-1.176,1.216
		c-0.248,0.574,0.203,0.822,0.686,0.76C-189.162,157.036-188.68,157.117-188.432,157.534
		C-190.398,157.964-188.738,157.018-188.432,157.534z"/>
	<path fill="#FFFFFF" d="M-212.712,154.201c-1.248-0.174-2.354-0.586-3.253-1.49c-0.784-0.787-1.969-1.711-1.551-2.984
		c0.129-0.397,0.496-0.619,0.865-0.768c0.705-0.282,1.418-0.537,2.121-0.823c0.659-0.269,1.317-0.542,1.979-0.805
		c0.669-0.267,1.379-0.465,1.995-0.843c0.52-0.318,1.793-1.154,2.103-0.18c0.157,0.496,0.177,1.012,0.372,1.502
		c0.206,0.516,0.514,0.983,0.887,1.394c0.348,0.384,0.752,0.716,1.176,1.015c0.328,0.229,1.244,0.646,0.619,1.064
		c-1.162,0.777-2.588,1.322-3.879,1.854C-210.38,153.59-211.521,154.129-212.712,154.201
		C-213.805,154.048-212.402,154.182-212.712,154.201z"/>
	<path fill="#FFFFFF" d="M-206.158,161.718c-1.042,0.046-2.052-0.286-2.697-1.138c-0.377-0.5-0.674-1.087-0.987-1.63
		c-0.343-0.593-0.742-1.241-0.884-1.917c-0.291-1.401,0.86-2.067,1.875-2.719c0.623-0.398,1.246-0.799,1.865-1.201
		c0.621-0.404,1.233-0.922,1.942-1.156c0.429-0.141,0.728-0.211,0.812,0.327c0.1,0.646,0.336,1.272,0.567,1.882
		c0.203,0.535,0.437,1.061,0.74,1.546c0.352,0.56,0.834,0.924,1.262,1.409c0.414,0.472,0.039,0.89-0.271,1.291
		c-0.418,0.538-0.799,1.104-1.229,1.632C-203.927,160.986-204.863,161.812-206.158,161.718
		C-207.385,161.771-205.242,161.785-206.158,161.718z"/>
	<path fill="#FFFFFF" d="M-226.316,154.01c-1.141-0.117-2.344-0.111-3.133-1.08c-0.607-0.746-0.754-2.07-0.246-2.906
		c0.59-0.969,2.053-1.34,3.043-1.717c0.662-0.252,1.338-0.466,2.031-0.615c0.712-0.154,1.548-0.409,2.277-0.41
		c0.541,0,1.102,0.566,1.412,0.959c0.355,0.451,0.847,0.779,1.418,0.88c0.359,0.062,0.938-0.054,1.084,0.396
		c0.07,0.213,0.013,0.432,0.012,0.65c0,0.325,0.079,0.646,0.111,0.968c0.027,0.289,0.01,0.546-0.252,0.714
		c-0.494,0.317-1.116,0.495-1.662,0.702c-1.355,0.517-2.741,0.957-4.152,1.294C-225.021,154-225.657,153.971-226.316,154.01
		C-227.341,153.904-225.877,153.982-226.316,154.01z"/>
	<path fill="#FFFFFF" d="M-233.305,141.624c-1.301,0.079-2.59-0.187-3.783-0.697c-1.046-0.448-2.316-1.065-3.042-1.971
		c-0.304-0.38-0.54-0.915-0.472-1.411c0.084-0.605,0.715-0.404,1.125-0.314c1.457,0.318,2.955,0.396,4.442,0.351
		c1.492-0.048,3-0.159,4.487-0.293c0.727-0.065,1.422-0.222,2.138-0.34c0.351-0.058,0.706-0.048,1.058-0.084
		c0.304-0.031,0.674-0.231,0.971-0.093c0.461,0.218,0.417,0.83,0.456,1.248c0.065,0.696,0.206,1.388,0.454,2.045
		c0.171,0.451-0.002,0.687-0.475,0.772c-0.66,0.12-1.341,0.302-2.008,0.364C-229.734,141.364-231.52,141.51-233.305,141.624
		C-235.539,141.76-233.08,141.609-233.305,141.624z"/>
	<path fill="#FFFFFF" d="M-236.788,121.645c3.058-0.108,6.138,0.176,9.19,0.299c0.732,0.029,1.465,0.064,2.195,0.115
		c0.338,0.024,0.647,0.099,0.979,0.147c0.235,0.035,0.517-0.006,0.683,0.208c0.288,0.371-0.014,1.131-0.074,1.529
		c-0.057,0.375-0.061,0.877-0.32,1.184c-0.207,0.244-0.576,0.271-0.873,0.291c-0.752,0.051-1.514,0.057-2.268,0.064
		c-1.533,0.019-3.068-0.023-4.592-0.196c-0.645-0.073-1.273-0.114-1.922-0.128c-0.295-0.006-0.592-0.029-0.875-0.117
		c-0.341-0.105-0.613-0.316-0.977-0.359c-0.633-0.072-1.178-0.031-1.789-0.257c-0.622-0.231-1.252-0.444-1.848-0.739
		c-0.389-0.191-2.703-1.703-1.365-2c0.522-0.115,1.107-0.039,1.638-0.039C-238.266,121.648-237.525,121.645-236.788,121.645
		C-234.206,121.553-237.834,121.645-236.788,121.645z"/>
	<path fill="#FFFFFF" d="M-234.959,142.958c-0.035-0.481,0.229-0.702,0.684-0.737c0.754-0.06,1.512-0.094,2.266-0.139
		c1.496-0.089,2.963-0.053,4.438-0.357c1.264-0.26,2.686-0.884,3.915-0.225c0.708,0.38,0.302,0.62,0.074,1.189
		c-0.247,0.617-0.08,1.283,0.106,1.892c0.123,0.396,0.457,0.776,0.43,1.211c-0.021,0.364-0.512,0.426-0.789,0.474
		c-1.466,0.25-2.971,0.311-4.455,0.291c-1.291-0.016-2.705,0.039-3.93-0.431c-0.932-0.356-2.141-1.172-2.521-2.137
		C-234.872,143.657-234.822,143.285-234.959,142.958C-235.005,142.32-234.8,143.338-234.959,142.958z"/>
	<path fill="#FFFFFF" d="M-239.473,124.686c-1.387,0.45-2.838,0.344-4.271,0.32c-1.52-0.023-3.044-0.001-4.559-0.162
		c-1.441-0.152-2.905-0.439-4.271-0.929c-0.578-0.208-1.133-0.478-1.714-0.681c-0.624-0.219-0.987-0.516-1.444-0.976
		c-0.213-0.215-0.412-0.37-0.326-0.704c0.061-0.228,0.276-0.193,0.461-0.191c0.787,0.006,1.576-0.014,2.363-0.004
		c1.524,0.02,3.045,0.183,4.568,0.221c1.532,0.038,3.062,0.084,4.593,0.146c0.533,0.021,1.445-0.131,1.9,0.201
		c0.221,0.162,0.339,0.48,0.508,0.694c0.213,0.269,0.46,0.508,0.726,0.726c0.306,0.248,0.633,0.467,0.967,0.676
		C-239.715,124.186-239.375,124.318-239.473,124.686C-240.548,125.034-239.393,124.386-239.473,124.686z"/>
	<path fill="#FFFFFF" d="M-186.438,179.48c0.067-0.638,0.16-1.277,0.354-1.892c0.205-0.653,0.562-1.245,0.852-1.862
		c0.277-0.588,0.525-1.191,0.711-1.815c0.199-0.675,0.224-1.353,0.359-2.033c0.094-0.463,0.379-0.854,0.785-1.096
		c0.48-0.287,1.166-0.505,1.707-0.646c0.266-0.068,0.982-0.187,1.047,0.23c0.088,0.578-0.443,1.208-0.628,1.73
		c-0.456,1.284-0.424,2.662-0.099,3.973c0.121,0.498,0.299,0.979,0.453,1.467c0.08,0.256,0.17,0.553,0.057,0.812
		c-0.124,0.282-0.432,0.463-0.688,0.609c-0.543,0.311-1.127,0.545-1.666,0.863c-0.515,0.304-1,0.658-1.423,1.082
		c-0.202,0.203-0.751,1.111-1.102,0.707C-186.164,181.096-186.251,180.122-186.438,179.48
		C-186.326,178.441-186.299,179.958-186.438,179.48z"/>
	<path fill="#FFFFFF" d="M-180.396,176.73c-0.617-1.268-0.724-2.703-0.332-4.053c0.396-1.365,1.056-2.65,1.535-3.988
		c0.332-0.931,0.534-2.027,1.455-2.578c0.756-0.453,1.709-0.348,2.531-0.174c0.354,0.076,0.999,0.182,0.797,0.693
		c-0.102,0.256-0.324,0.458-0.486,0.676c-0.211,0.277-0.402,0.57-0.567,0.879c-0.673,1.264-0.622,2.529-0.413,3.903
		c0.072,0.472,0.119,0.995-0.203,1.392c-0.355,0.439-1.054,0.613-1.533,0.896c-0.496,0.291-0.963,0.631-1.375,1.03
		c-0.211,0.201-0.406,0.417-0.582,0.646c-0.158,0.205-0.297,0.573-0.566,0.651C-180.221,176.727-180.309,176.734-180.396,176.73
		C-181.081,175.325-180.135,176.739-180.396,176.73z"/>
	<path fill="#FFFFFF" d="M-241.861,156.109c0.786-0.782,1.602-1.571,2.602-2.078c0.512-0.26,1.064-0.436,1.636-0.508
		c0.653-0.082,1.224-0.281,1.856-0.453c0.676-0.182,1.358-0.338,2.039-0.51c0.668-0.168,1.315-0.42,1.98-0.588
		c0.612-0.156,0.885,0.242,1.191,0.686c0.363,0.525,0.843,0.955,1.375,1.307c0.268,0.178,1.065,0.49,0.611,0.88
		c-0.49,0.417-1.125,0.488-1.725,0.642c-0.664,0.171-1.303,0.424-1.971,0.584c-0.676,0.162-1.36,0.285-2.047,0.387
		c-1.39,0.204-2.807,0.377-4.211,0.378c-0.713,0-1.427-0.056-2.125-0.199C-240.992,156.566-241.757,156.562-241.861,156.109
		C-240.596,154.852-241.797,156.389-241.861,156.109z"/>
	<path fill="#FFFFFF" d="M-227.361,135.934c-0.125,0.487-1.171,0.416-1.556,0.467c-0.792,0.105-1.584,0.203-2.379,0.283
		c-1.526,0.153-3.062,0.248-4.597,0.229c-1.397-0.018-2.836-0.083-4.197-0.421c-0.631-0.156-1.243-0.38-1.814-0.69
		c-0.35-0.189-0.923-0.471-1.07-0.878c-0.215-0.597,0.461-0.534,0.8-0.521c0.726,0.031,1.502-0.12,2.228-0.172
		c1.481-0.105,2.965-0.203,4.438-0.401c0.707-0.097,1.411-0.215,2.108-0.369c0.559-0.124,1.395-0.538,1.961-0.293
		c0.51,0.219,0.924,0.858,1.323,1.233c0.519,0.488,1.078,0.814,1.739,1.072C-228.032,135.605-227.682,135.738-227.361,135.934
		C-227.439,136.234-227.996,135.545-227.361,135.934z"/>
	<path fill="#FFFFFF" d="M-251.578,158.936c-0.723-0.061-1.611-0.086-1.186-1.014c0.479-1.042,1.183-2.01,1.916-2.885
		c0.676-0.807,1.476-1.852,2.668-1.469c1.279,0.41,2.617,0.576,3.953,0.664c0.639,0.041,1.278,0.066,1.918,0.095
		c0.199,0.009,1.234,0.065,0.72,0.528c-0.376,0.34-0.927,0.646-1.36,0.916c-0.521,0.326-1.111,0.552-1.656,0.834
		c-1.111,0.578-2.146,1.273-3.36,1.627C-249.118,158.566-250.381,158.846-251.578,158.936
		C-251.727,158.923-251.391,158.921-251.578,158.936z"/>
	<path fill="#FFFFFF" d="M-244.506,227.832c1.082-0.333,2.22-0.42,3.346-0.357c0.963,0.055,1.846,0.176,2.283,1.146
		c0.447,0.988,0.422,2.25,0.369,3.312c-0.045,0.896-0.037,1.84-0.891,2.36c-0.824,0.501-1.873,0.56-2.809,0.503
		c-0.5-0.029-1.127,0.02-1.607-0.119c-0.475-0.137-0.176-0.643-0.037-0.922c0.496-0.996,0.731-1.91,0.52-3.02
		C-243.529,229.698-244.052,228.775-244.506,227.832C-243.1,227.398-244.266,228.332-244.506,227.832z"/>
	<path fill="#FFFFFF" d="M-218.326,130.669c-0.287,0.488-0.85,0.612-1.355,0.761c-0.717,0.211-1.443,0.391-2.18,0.52
		c-1.453,0.253-2.964,0.303-4.437,0.306c-1.479,0.002-2.956-0.133-4.386-0.522c-0.604-0.166-1.2-0.381-1.736-0.709
		c-0.484-0.295-1.232-0.556-1.574-1.021c-0.424-0.577,0.195-0.743,0.643-0.731c0.783,0.02,1.582,0.19,2.365,0.261
		c1.532,0.136,3.073,0.194,4.611,0.151c1.449-0.039,2.917-0.33,4.365-0.224C-220.699,129.557-219.445,129.99-218.326,130.669
		C-218.521,131.002-219.959,129.677-218.326,130.669z"/>
	<path fill="#FFFFFF" d="M-164.045,187.314c0.625,0.617,1.053,1.379,1.068,2.271c0.016,0.956-0.006,2.061-0.232,2.99
		c-0.223,0.91-0.759,1.646-1.568,2.117c-0.332,0.192-0.686,0.343-1.039,0.49c-0.199,0.082-0.397,0.162-0.596,0.248
		c-0.227,0.101-0.43-0.111-0.595-0.229c-0.708-0.504-1.211-1.218-1.521-2.022c-0.146-0.383-0.252-0.779-0.334-1.179
		c-0.111-0.535,0.223-0.619,0.618-0.808c0.397-0.188,0.466-0.606,0.679-0.951c0.244-0.393,0.573-0.725,0.94-1.002
		c0.401-0.305,0.854-0.531,1.263-0.83C-164.9,188.072-164.48,187.684-164.045,187.314
		C-163.225,188.128-164.675,187.85-164.045,187.314z"/>
	<path fill="#FFFFFF" d="M-214.378,228.425c0.978,0,1.961-0.021,2.733,0.679c0.756,0.686,0.863,1.729,0.814,2.688
		c-0.057,1.127-0.502,2.339-1.52,2.948c-0.909,0.545-1.932,0.304-2.924,0.232c-0.273-0.02-0.903,0.053-0.961-0.33
		c-0.037-0.233,0.02-0.486,0.051-0.719c0.068-0.506,0.132-1.013,0.179-1.521c0.063-0.688,0.103-1.381,0.047-2.069
		c-0.041-0.501-0.228-1.028-0.17-1.534C-216.051,228.121-214.378,228.469-214.378,228.425
		C-214.006,228.425-214.378,228.417-214.378,228.425z"/>
	<path fill="#FFFFFF" d="M-190.35,171.453c-0.142-2.071,1.082-3.559,2.736-4.637c0.354-0.23,2.086-1.349,2.43-0.672
		c0.178,0.353-0.135,0.953-0.188,1.306c-0.104,0.686-0.073,1.386,0.022,2.071c0.102,0.709,0.358,1.556,0.084,2.258
		c-0.239,0.621-0.938,0.967-1.481,1.279c-0.481,0.277-0.989,0.467-1.487,0.711c-0.336,0.166-0.722,0.517-1.127,0.429
		c-0.363-0.079-0.55-0.519-0.68-0.82C-190.305,172.768-190.295,172.102-190.35,171.453
		C-190.486,169.434-190.295,172.102-190.35,171.453z"/>
	<path fill="#FFFFFF" d="M-159.34,179.309c0.773,0.61,1.633,1.099,2.428,1.678c0.377,0.274,0.738,0.57,1.064,0.902
		c0.166,0.172,0.32,0.35,0.465,0.537c0.131,0.172,0.271,0.526,0.498,0.592c0.305,0.088,0.628-0.275,0.867,0.113
		c0.179,0.291,0.166,0.737,0.197,1.062c0.116,1.242,0.104,2.563-0.261,3.771c-0.267,0.888-1.346,0.142-1.812-0.211
		c-0.812-0.619-1.358-1.496-1.965-2.301c-0.677-0.896-1.094-1.948-1.451-3.005c-0.17-0.504-0.418-1.045-0.45-1.578
		C-159.79,180.32-159.578,179.792-159.34,179.309C-157.904,180.439-159.748,180.136-159.34,179.309z"/>
	<path fill="#FFFFFF" d="M-176.869,179.328c-0.035-1.16,0.271-2.278,0.624-3.371c0.157-0.48,0.265-1.035,0.528-1.471
		c0.279-0.461,0.705-0.793,0.965-1.279c0.212-0.4,0.336-0.85,0.654-1.184c0.312-0.33,0.744-0.555,1.193-0.623
		c0.319-0.049,0.93-0.059,0.854,0.418c-0.083,0.539-0.504,1.094-0.693,1.611c-0.186,0.502-0.324,1.021-0.391,1.553
		c-0.076,0.607,0.015,1.187,0.021,1.791c0.01,0.596-0.232,0.996-0.404,1.537c-0.156,0.5-0.022,1.025-0.149,1.526
		c-0.099,0.384-0.353,0.687-0.692,0.886c-0.543,0.312-1.135,0.608-1.707,0.861c-0.466,0.205-0.558-0.125-0.619-0.525
		C-176.771,180.491-176.959,179.904-176.869,179.328C-176.917,177.703-176.96,179.911-176.869,179.328z"/>
	<path fill="#FFFFFF" d="M-154.254,177.533c1.627,0.371,3.842,0.474,4.962,1.892c0.562,0.711,0.604,1.567,0.749,2.427
		c0.105,0.646,0.4,2.004-0.258,2.486c-0.545,0.398-1.514-0.309-2.037-0.461c-0.865-0.252-1.646-0.498-2.278-1.182
		c-0.536-0.578-0.853-1.332-0.905-2.117c-0.035-0.488-0.022-0.961-0.1-1.449C-154.205,178.602-154.295,178.07-154.254,177.533
		C-153.107,177.795-154.328,178.506-154.254,177.533z"/>
	<path fill="#FFFFFF" d="M-181.801,182.202c0.103-0.911,0.328-1.825,0.885-2.573c0.297-0.402,0.645-0.727,0.873-1.181
		c0.214-0.427,0.372-0.878,0.598-1.302c0.219-0.414,0.482-0.809,0.812-1.146c0.231-0.237,0.759-0.797,1.134-0.715
		c0.491,0.106,0.13,0.919,0.07,1.209c-0.12,0.588-0.204,1.185-0.248,1.782c-0.088,1.199-0.01,2.406,0.234,3.582
		c0.213,1.029-0.233,1.627-1.176,2.005c-0.494,0.198-0.986,0.411-1.443,0.688c-0.271,0.164-0.799,0.75-1.104,0.361
		c-0.238-0.306-0.348-0.847-0.459-1.214C-181.77,183.212-181.839,182.709-181.801,182.202
		C-181.697,181.279-181.879,183.25-181.801,182.202z"/>
	<path fill="#FFFFFF" d="M-178.07,161.415c-0.029,0.458-0.463,0.765-0.717,1.108c-0.316,0.426-0.574,0.896-0.734,1.402
		c-0.352,1.115-0.049,2.262-0.182,3.399c-0.1,0.843-0.562,1.521-1.318,1.914c-0.471,0.245-0.99,0.362-1.502,0.5
		c-0.256,0.069-0.514,0.145-0.76,0.247c-0.23,0.095-0.496,0.332-0.756,0.318c-0.457-0.025-0.497-0.886-0.542-1.193
		c-0.092-0.615-0.124-1.28,0.011-1.894c0.228-1.03,0.988-1.532,1.82-2.059c0.936-0.593,1.54-1.476,2.193-2.339
		C-180.059,162.163-179.01,161.016-178.07,161.415C-178.098,161.828-178.366,161.289-178.07,161.415z"/>
	<path fill="#FFFFFF" d="M-166.232,174.039c0.325,0.375,0.518,0.784,0.914,1.098c0.332,0.264,0.565,0.616,0.66,1.029
		c0.199,0.871-0.031,1.917-0.195,2.777c-0.193,1.018-0.582,1.977-1.312,2.729c-0.349,0.36-0.747,0.669-1.131,0.988
		c-0.353,0.293-0.74,0.689-1.099,0.158c-0.896-1.351-1.133-2.936-0.59-4.487c0.273-0.782,0.733-1.333,1.338-1.881
		C-166.934,175.802-166.436,174.982-166.232,174.039C-165.916,174.404-166.468,175.137-166.232,174.039z"/>
	<path fill="#FFFFFF" d="M-162.077,190.24c0.579,0.039,0.901,0.422,1.278,0.807c0.422,0.432,0.68,0.492,1.031-0.039
		c0.348-0.523,0.916-0.852,1.258-1.381c0.395-0.617,0.605-1.359,0.887-2.031c0.993,0.881,1.48,2.293,1.566,3.59
		c0.095,1.435-0.529,2.76-1.338,3.905c-0.438,0.62-0.894,0.662-1.484,0.214c-0.557-0.424-1.092-0.881-1.57-1.392
		C-161.268,193.039-162.461,191.525-162.077,190.24C-161.41,190.285-162.256,190.837-162.077,190.24z"/>
	<path fill="#FFFFFF" d="M-178.008,186.152c0.601-1.455,0.938-3.08,2.381-3.969c0.417-0.256,0.881-0.42,1.297-0.68
		c0.215-0.133,0.42-0.279,0.615-0.439c0.138-0.114,0.4-0.481,0.592-0.486c0.578-0.016,0.133,0.888,0.055,1.096
		c-0.207,0.547-0.508,1.047-0.688,1.604c-0.329,1.013-0.367,2.088-0.126,3.123c0.194,0.848,0.12,1.486-0.771,1.832
		c-0.513,0.197-1.039,0.347-1.543,0.564c-0.361,0.159-0.928,0.584-1.265,0.15c-0.228-0.293-0.267-0.816-0.347-1.17
		C-177.93,187.244-178.004,186.702-178.008,186.152C-177.414,184.713-178,187.205-178.008,186.152z"/>
	<path fill="#FFFFFF" d="M-172.068,179.562c-0.076-0.646-0.205-1.565,0.416-2.008c0.287-0.205,0.658-0.252,1.002-0.259
		c0.2-0.004,0.76-0.073,0.894,0.14c0.164,0.263-0.035,0.875-0.063,1.149c-0.062,0.625-0.089,1.256-0.037,1.884
		c0.053,0.618,0.186,1.227,0.416,1.805c0.183,0.455,0.426,0.902,0.479,1.396c0.094,0.884-0.674,1.287-1.363,1.618
		c-0.59,0.283-1.188,0.551-1.781,0.822c-0.265,0.121-0.822,0.474-1.051,0.103c-0.236-0.385-0.139-1.108-0.119-1.541
		c0.025-0.603,0.143-1.2,0.42-1.739C-172.301,181.85-171.922,180.802-172.068,179.562
		C-172.092,179.379-171.934,180.716-172.068,179.562z"/>
	<path fill="#FFFFFF" d="M-192.367,163.32c-0.162,0.514-0.15,1.049-0.044,1.572c0.104,0.504,0.2,1.075,0.369,1.56
		c0.192,0.556,0.601,0.112,0.862-0.087c0.361-0.275,0.854-0.651,1.332-0.489c0.676,0.228,0.457,1.508,0.156,1.95
		c-0.308,0.453-0.646,0.885-0.935,1.35c-0.281,0.451-0.306,0.908-0.492,1.381c-0.317,0.807-1.668,0.393-2.221,0.103
		c-0.728-0.382-1.694-1.267-1.757-2.132c-0.076-1.073,0.627-2.291,1.066-3.234C-193.658,164.5-193.354,163.48-192.367,163.32
		C-192.727,164.45-193.221,163.46-192.367,163.32z"/>
	<path fill="#FFFFFF" d="M-160.611,231.189c0,0.951-0.049,1.836-0.606,2.646c-0.486,0.702-1.238,1.185-2.072,1.365
		c-0.392,0.086-0.802,0.106-1.201,0.122c-0.188,0.007-0.495,0.042-0.647-0.102c-0.312-0.294,0.344-1.353,0.451-1.621
		c0.431-1.086,0.681-2.248,0.61-3.42c-0.032-0.546-0.162-1.058-0.276-1.587c-0.054-0.247-0.084-0.514,0.221-0.573
		c0.928-0.183,2.043,0.256,2.828,0.722c0.356,0.211,0.52,0.592,0.604,0.979C-160.668,229.882-160.562,231.189-160.611,231.189
		C-160.611,231.45-160.617,231.189-160.611,231.189z"/>
	<path fill="#FFFFFF" d="M-246.377,174.958c-0.262,0.692-0.521,1.384-0.783,2.076c-0.122,0.323-0.234,0.651-0.379,0.966
		c-0.146,0.316-0.136,0.604-0.208,0.934c-0.241,1.125-1.651,1.278-2.586,1.422c-1.435,0.223-2.901,0.168-4.295-0.256
		c-1.134-0.346-2.093-1.324-2.918-2.139c-0.418-0.413-0.81-0.857-1.134-1.35c-0.361-0.547-0.51-1.154-0.811-1.723
		c-0.125-0.236-0.378-0.391-0.539-0.603c-0.16-0.211-0.283-0.446-0.382-0.69c-0.214-0.531-0.315-1.099-0.503-1.64
		c-0.214-0.618-0.386-1.202-0.468-1.854c-0.089-0.709-0.138-1.433-0.354-2.119c-0.098-0.303-0.203-0.558-0.201-0.881
		c0.002-0.316,0.025-0.629,0.008-0.945c-0.043-0.801-0.104-1.6-0.159-2.399c-0.106-1.54-0.164-3.075-0.123-4.618
		c0.04-1.502,0.065-3.056,0.291-4.543c0.207-1.363,0.637-2.74,0.994-4.074c0.362-1.355,0.858-2.676,1.5-3.928
		c0.593-1.156,1.229-2.343,1.95-3.426c0.729-1.096,1.742-1.967,2.738-2.816c2.057-1.75,4.436-3.177,7.096-3.783
		c0.688-0.156,1.369-0.184,2.068-0.227c0.751-0.045,1.549-0.214,2.29-0.027c0.55,0.138,1.097,0.365,1.408,0.859
		c0.229,0.364,0.464,1.1,0.038,1.417c-0.462,0.345-1.26,0.271-1.809,0.354c-0.726,0.109-1.444,0.259-2.151,0.455
		c-1.322,0.367-2.573,0.912-3.767,1.584c-2.34,1.32-4.109,3.139-5.588,5.363c-0.744,1.117-1.386,2.307-1.853,3.566
		c-0.507,1.372-0.663,2.814-0.864,4.254c-0.201,1.447-0.449,2.879-0.566,4.337c-0.119,1.466-0.158,2.937-0.133,4.405
		c0.049,2.729,0.379,5.479,1.523,7.986c0.861,1.887,2.21,3.709,4.234,4.438c1.057,0.38,2.222,0.432,3.319,0.211
		c0.655-0.131,1.288-0.352,1.915-0.578C-247.139,174.811-246.838,174.852-246.377,174.958
		C-246.727,175.884-247.145,174.779-246.377,174.958z"/>
	<path fill="#FFFFFF" d="M-159.979,141.747c-0.188-0.515-0.431-1.022-0.273-1.581c0.129-0.459,0.521-0.742,0.979-0.826
		c1.234-0.227,2.787-0.072,3.853,0.618c0.469,0.304,0.856,0.713,1.166,1.176c0.338,0.509,0.528,1.105,0.911,1.585
		c0.115,0.146,0.891,0.373,0.775,0.042c-0.113-0.323-0.231-0.993-0.014-1.317c0.178-0.267,0.775-0.334,1.055-0.389
		c0.647-0.128,1.299-0.047,1.881,0.271c0.506,0.274,0.888,0.692,1.176,1.186c0.25,0.427,0.707,1.115,0.695,1.621
		c-0.015,0.562-0.638,0.864-1.065,1.089c-0.601,0.315-1.248,0.537-1.916,0.658c-1.406,0.256-2.884,0.057-4.29-0.107
		c-1.506-0.176-3.006-0.41-4.518-0.523c-1.5-0.114-3.008-0.087-4.506,0.037c-1.494,0.125-2.955,0.404-4.436,0.64
		c-1.4,0.224-2.877,0.366-4.277,0.065c-1.289-0.277-2.152-1.312-3.395-1.699c-0.359-0.111-0.936-0.193-1.016-0.646
		c-0.103-0.593,0.354-1.115,0.851-1.352c0.521-0.249,1.093-0.479,1.685-0.406c0.65,0.081,1.162,0.575,1.764,0.807
		c0.265,0.101,0.494-0.176,0.36-0.424c-0.116-0.22-0.317-0.343-0.389-0.599c-0.142-0.512,0.753-0.586,1.071-0.637
		c1.389-0.222,2.707,0.2,3.686,1.212c0.27,0.277,0.533,0.562,0.801,0.84c0.312,0.325,0.542-0.077,0.485-0.383
		c-0.108-0.587-0.912-1.062-0.658-1.711c0.251-0.637,1.253-0.983,1.853-1.141c0.769-0.201,1.574-0.164,2.332,0.057
		c0.692,0.201,1.523,0.514,1.961,1.119C-161.003,141.568-160.74,142.018-159.979,141.747
		C-160.08,141.465-160.6,141.968-159.979,141.747z"/>
	<path fill="#FFFFFF" d="M-213.009,171.266c-1.354,0.016-2.114-0.832-2.948-1.781c-0.919-1.045-1.602-2.273-2.096-3.572
		c-0.43-1.13-0.621-2.275,0.293-3.221c0.418-0.433,0.972-0.726,1.477-1.043c0.625-0.393,1.256-0.773,1.914-1.109
		c0.6-0.307,1.215-0.57,1.805-0.895c0.457-0.25,1.062-0.681,1.609-0.651c0.436,0.024,0.689,0.503,0.908,0.815
		c0.357,0.515,0.682,1.062,1.117,1.517c0.738,0.771,1.721,1.176,2.787,1.177c0.365,0.001,0.812-0.105,1.162,0.027
		c0.293,0.113,0.354,0.494,0.416,0.76c0.16,0.667,1.099,1.373,0.473,2.027c-0.84,0.879-1.854,1.646-2.784,2.426
		c-0.97,0.811-1.964,1.594-3.011,2.306C-210.83,170.689-211.835,171.251-213.009,171.266
		C-213.812,171.273-212.007,171.253-213.009,171.266z"/>
	<path fill="#FFFFFF" d="M-196.129,181.936c-0.268-0.422-0.629-0.781-0.837-1.24c-0.267-0.586-0.093-1.269-0.134-1.891
		c-0.047-0.707,0.094-1.312,0.177-2.004c0.087-0.729,0.116-1.455,0.233-2.181c0.231-1.44,0.51-2.879,0.983-4.263
		c0.209-0.607,0.822,0.037,1.078,0.235c0.528,0.414,1.123,0.746,1.754,0.979c0.511,0.188,1.177,0.188,1.636,0.47
		c0.496,0.306,0.592,1.054,0.772,1.554c0.221,0.614,0.446,1.235,0.71,1.832c0.097,0.221,0.238,0.41,0.458,0.52
		c0.206-0.193,0.331-0.451,0.452-0.7c0.271-0.549,0.574-0.78,1.123-1.047c0.613-0.3,1.252-0.563,1.812-0.954
		c0.167-0.116,0.361-0.299,0.582-0.26c0.268,0.05,0.404,0.326,0.36,0.572c-0.112,0.623-0.487,1.299-0.745,1.875
		c-0.307,0.68-0.73,1.313-0.979,2.016c-0.238,0.667-0.316,1.378-0.281,2.083c0.033,0.626,0.146,1.188-0.248,1.733
		c-0.445,0.62-0.965,1.225-1.486,1.782c-1.003,1.072-2.303,1.065-3.63,0.65c-0.694-0.218-1.358-0.519-2.015-0.833
		c-0.312-0.15-0.767-0.281-0.996-0.539C-195.551,182.096-195.803,181.913-196.129,181.936
		C-196.551,181.273-195.729,181.909-196.129,181.936z"/>
	<path fill="#FFFFFF" d="M-210.877,154.714c-0.007,0.253-0.148,0.4-0.292,0.589c-0.172,0.227-0.29,0.539-0.363,0.812
		c-0.079,0.298-0.091,0.613-0.001,0.91c0.086,0.285,0.32,0.551,0.251,0.865c-0.104,0.49-0.872,0.723-1.252,0.933
		c-0.646,0.358-1.284,0.729-1.933,1.079c-2.418,1.309-5.385,2.381-8.153,1.588c-0.498-0.143-0.94-0.417-1.254-0.833
		c-0.414-0.548-0.813-1.062-1.276-1.573c-0.91-1.008-0.975-2.15-0.933-3.447c0.021-0.638,0.247-0.697,0.831-0.801
		c0.742-0.132,1.473-0.32,2.191-0.542c1.359-0.418,2.725-0.901,4.027-1.472c0.618-0.271,1.223-0.598,1.887-0.258
		c0.316,0.162,0.549,0.436,0.817,0.66c0.315,0.264,0.659,0.5,1.019,0.703c0.629,0.358,1.308,0.625,2,0.834
		c0.391,0.119,0.807,0.154,1.211,0.09C-211.684,154.788-211.305,154.591-210.877,154.714
		C-210.887,155.074-211.195,154.623-210.877,154.714z"/>
	<path fill="#FFFFFF" d="M-226.066,147.201c-0.803,0.841-2.058,1.052-3.062,1.576c-0.423,0.221-0.829,0.492-1.101,0.894
		c-0.332,0.487-0.367,1.044-0.892,1.397c-0.479,0.324-1.048,0.33-1.595,0.451c-0.73,0.164-1.434,0.422-2.139,0.672
		c-1.404,0.494-2.852,0.795-4.316,1.049c-1.454,0.251-2.893,0.518-4.375,0.419c-0.693-0.046-1.389-0.109-2.08-0.175
		c-0.645-0.062-1.527-0.075-2.092-0.424c-0.946-0.584,1.617-2.103,2.042-2.363c1.192-0.734,2.413-1.426,3.667-2.055
		c2.404-1.205,5.128-2.478,7.854-2.627c0.676-0.039,1.271,0.416,1.889,0.633c0.666,0.235,1.361,0.383,2.062,0.468
		C-228.831,147.281-227.443,147.201-226.066,147.201C-226.792,147.962-226.461,147.201-226.066,147.201z"/>
	<path fill="#FFFFFF" d="M-197.279,146.079c-0.332-0.5-0.828,0.297-1.061,0.513c-0.488,0.456-1.04,0.832-1.59,1.206
		c-1.062,0.72-1.979,1.664-3.229,2.052c-1.194,0.373-2.257,0.34-3.103-0.666c-0.815-0.973-1.246-2.205-1.254-3.468
		c-0.002-0.528-0.014-1.237,0.297-1.694c0.386-0.563,0.943-1.086,1.464-1.525c1.071-0.91,2.325-1.628,3.461-2.458
		c0.551-0.403,1.094-0.819,1.617-1.259c0.438-0.367,0.92-0.994,1.505-1.129c0.429-0.1,0.625,0.668,0.742,0.938
		c0.275,0.634,0.541,1.271,0.82,1.902c0.096,0.213,0.357,0.663,0.541,0.651c-0.178,1.084,1.172,1.857,1.053,2.926
		c-0.043,0.396-0.437,0.729-0.689,1.002C-196.867,145.244-197.716,145.82-197.279,146.079z"/>
	<path fill="#FFFFFF" d="M-207.878,143.402c-0.161,0.496-0.506,0.791-0.897,1.105c-0.553,0.443-1.131,0.854-1.738,1.219
		c-1.168,0.699-2.432,1.088-3.696,1.564c-1.254,0.471-2.53,0.957-3.882,1.023c-1.061,0.052-2.203-0.069-2.916-0.944
		c-0.355-0.438-0.646-0.945-0.979-1.403c-0.363-0.5-0.709-1.023-0.869-1.626c-0.258-0.964-0.047-1.601,0.904-1.973
		c1.312-0.515,2.732-0.526,4.112-0.713c1.438-0.195,2.901-0.413,4.353-0.489c0.455-0.023,0.918,0.012,1.336,0.208
		c0.516,0.242,0.823,0.706,1.235,1.075C-210.076,143.202-209.002,143.555-207.878,143.402
		C-208.073,144.003-209.395,143.605-207.878,143.402z"/>
	<path fill="#FFFFFF" d="M-221.086,133.73c1.117-0.11,2.156,0.234,2.904,1.084c0.869,0.987,1.744,1.781,2.877,2.465
		c0.537,0.326,0.969,0.466,1.599,0.441c0.362-0.015,0.556,0.063,0.599,0.441c0.032,0.279,0.026,0.561,0.058,0.84
		c0.028,0.262,0.13,0.504,0.159,0.764c0.048,0.414-0.274,0.534-0.625,0.612c-1.465,0.325-2.971,0.354-4.459,0.493
		c-1.483,0.138-2.955,0.415-4.438,0.132c-1.183-0.226-2.256-0.649-2.621-1.884c-0.177-0.598-0.202-1.225-0.144-1.842
		c0.059-0.619,0.093-1.373,0.373-1.938c0.291-0.586,0.847-0.858,1.416-1.116C-222.663,133.893-221.895,133.635-221.086,133.73
		C-219.836,133.607-222.104,133.609-221.086,133.73z"/>
	<path fill="#FFFFFF" d="M-222.57,200.393c0.467,1.051,0.975,2.084,1.403,3.151c0.211,0.526,0.33,1.026,0.325,1.599
		c-0.006,0.51-0.108,1.023-0.088,1.533c0.033,0.861,1.008,0.436,1.445,0.122c0.83-0.592,1.242-1.797,1.715-2.664
		c0.5,0.224,0.451,0.957,0.596,1.408c0.188,0.586,0.476,1.138,0.834,1.635c0.348,0.484,0.777,0.888,1.169,1.332
		c0.146,0.165,0.287,0.386,0.457,0.525c0.202,0.168,0.526-0.031,0.5-0.283c-0.029-0.283-0.201-0.554-0.257-0.834
		c-0.063-0.33-0.063-0.668-0.016-1c0.1-0.679,0.365-1.381,0.756-1.944c0.324-0.468,0.75-0.853,1.207-1.186
		c0.35-0.253,0.926-0.773,1.39-0.745c0.405,0.024,0.381,0.678,0.378,0.953c-0.008,0.674-0.188,1.325-0.533,1.905
		c-0.75,1.261-1.475,2.535-2.219,3.799c-0.69,1.174-1.426,2.396-2.438,3.324c-0.902,0.83-2.129,1.147-3.316,1.304
		c-2.241,0.296-5.153,0.005-5.889,2.722c-0.377,1.389-0.59,2.764-0.666,4.194c-0.08,1.479-0.233,2.974,0.023,4.444
		c0.111,0.635,0.307,1.186,0.727,1.683c0.187,0.22,0.394,0.42,0.604,0.618c0.279,0.262,0.492,0.226,0.849,0.259
		c1.366,0.129,2.61-0.394,3.95-0.465c0.782-0.044,1.578,0.146,2.119,0.741c0.613,0.678,0.798,1.648,0.865,2.526
		c0.05,0.654-0.045,1.31-0.221,1.938c-0.148,0.533-0.307,1.25-0.722,1.646c-0.388,0.373-0.96,0.322-1.457,0.338
		c-0.804,0.022-1.608,0.045-2.413,0.059c-3.076,0.046-6.146-0.207-9.224-0.225c-0.652-0.005-1.322,0.022-1.972-0.045
		c-0.287-0.029-0.735-0.029-0.927-0.289c-0.187-0.254-0.135-0.674-0.132-0.966c0.01-0.765-0.027-1.528,0.004-2.293
		c0.025-0.623,0.189-1.241,0.191-1.862c0.001-0.281-0.062-0.56-0.227-0.793c-0.244-0.348-0.128-0.451-0.029-0.85
		c0.166-0.678,0.008-1.336-0.088-2.008c-0.11-0.785-0.108-1.58-0.123-2.371c-0.024-1.453-0.227-2.902-0.338-4.352
		c-0.056-0.707-0.111-1.416-0.199-2.121c-0.084-0.687-0.282-1.269-0.529-1.907c-0.225-0.579-0.232-1.242-0.33-1.851
		c-0.057-0.355-0.273-0.752-0.205-1.119c0.053-0.277,0.387-0.36,0.618-0.428c0.627-0.182,1.26-0.337,1.88-0.544
		c1.211-0.403,2.385-0.937,3.436-1.659c1.057-0.729,1.843-1.67,2.526-2.742c0.742-1.164,1.392-2.383,2.097-3.567
		C-224.436,201.99-223.818,200.789-222.57,200.393C-222.048,201.564-223.344,200.639-222.57,200.393z"/>
	<path fill="#FFFFFF" d="M-157.188,195.963c0.433,0.327,0.451,0.796,0.449,1.292c-0.001,0.736,0.104,1.484,0.164,2.218
		c0.129,1.518,0.272,3.031,0.416,4.547c0.29,3.049,0.592,6.096,0.807,9.149c0.107,1.524,0.242,3.052,0.451,4.567
		c0.205,1.486,0.479,2.951,0.602,4.449c0.057,0.699,0.117,1.397,0.18,2.097c0.059,0.659,0.096,1.368,0.378,1.977
		c0.433,0.937,1.384,1.357,2.324,1.622c0.621,0.174,1.248,0.336,1.875,0.485c0.651,0.155,1.429,0.12,2.041,0.392
		c0.981,0.438,1.14,1.797,1.12,2.729c-0.016,0.685-0.153,1.359-0.364,2.009c-0.188,0.575-0.388,1.215-0.926,1.562
		c-0.399,0.258-0.89,0.327-1.354,0.354c-0.738,0.037-1.482,0.021-2.223,0.023c-3.046,0.015-6.124,0.114-9.166-0.059
		c-0.562-0.032-0.833-0.479-0.488-0.973c0.385-0.549,0.76-0.918,0.905-1.604c0.14-0.655,0.093-1.334,0.093-2
		c0.002-0.584,0.014-1.144-0.25-1.681c-0.205-0.415-0.537-0.752-0.933-0.989c-0.422-0.253-0.972-0.33-1.293-0.729
		c-0.318-0.396-0.289-0.961-0.324-1.44c-0.058-0.772-0.125-1.543-0.21-2.313c-0.325-2.973-0.922-5.875-1.831-8.725
		c-0.453-1.422-0.942-2.832-1.473-4.229c-0.409-1.08-0.704-2.201-0.294-3.332c0.421-1.152,1.465-1.953,2.375-2.717
		c0.984-0.826,1.869-1.666,2.453-2.832c0.388-0.773,0.599-1.627,0.892-2.437c0.333-0.92,0.702-1.827,1.115-2.715
		c0.297-0.64,0.944-0.755,1.267-0.072C-158.07,197.305-157.434,196.218-157.188,195.963
		C-156.609,196.402-157.285,196.064-157.188,195.963z"/>
	<path fill="#FFFFFF" d="M-169.402,126.98c-0.896,0.896-1.377,2.103-2.244,3.015c-0.789,0.825-1.842,1.204-2.973,1.215
		c0.299-0.533,0.68-1.067,0.877-1.647c0.198-0.578-0.154-1.356-0.861-1.187c-0.61,0.146-1.088,0.545-1.748,0.452
		c-0.225-0.032-0.562,0.007-0.752-0.137c-0.164-0.125-0.213-0.34-0.342-0.493c-0.363-0.429-0.701-0.722-0.846-1.296
		c-0.137-0.547-0.102-1.123-0.064-1.682c0.028-0.457,0.196-0.947,0.765-0.908c0.47,0.033,0.733,0.787,1.059,1.072
		c0.787,0.69,1.987,0.713,2.908,0.283c0.437-0.203,0.804-0.525,1.074-0.921c0.149-0.218,0.271-0.454,0.37-0.698
		c0.109-0.271-0.588-0.439-0.817-0.511c-1.075-0.331-2.295-0.373-2.953-1.424c-0.28-0.447-0.28-0.923-0.427-1.411
		c-0.165-0.557-0.557-0.948-0.975-1.331c-0.282-0.263-0.522-0.472-0.117-0.729c0.551-0.35,1.154-0.646,1.798-0.771
		c1.081-0.21,2.123,0.147,2.916,0.89c0.463,0.434,0.846,0.949,1.293,1.398c0.178,0.18,0.603,0.115,0.59-0.188
		c-0.013-0.324-0.22-0.662-0.271-0.99c-0.187-1.223,0.441-2.545,1.592-3.06c0.994-0.444,2.345-0.589,3.373-0.2
		c0.285,0.107,0.556,0.262,0.795,0.45c-0.096,0.216-0.274,0.369-0.491,0.457c-0.492,0.203-0.976,0.209-1.375,0.614
		c-0.655,0.663-1.01,1.891-0.817,2.792c0.215,1.005,0.949,1.933,1.844,2.432c0.183,0.103,0.377,0.187,0.578,0.237
		c0.326,0.083,0.412-0.029,0.703-0.141c0.504-0.194,1.078-0.043,1.6-0.18c0.312-0.082,0.143-0.396,0.055-0.603
		c-0.271-0.652-0.411-1.291-0.254-1.995c0.115-0.516,0.363-0.946,0.902-1.096c0.623-0.172,1.404-0.381,2.022-0.104
		c0.312,0.141,0.878,0.441,0.636,0.855c-0.31,0.524-0.875,0.8-1.143,1.369c-0.425,0.905-0.105,1.875,0.868,2.217
		c1.25,0.439,2.875,0.205,4.125-0.119c1.411-0.366,2.723-1.049,4.173-1.273c1.326-0.205,2.663-0.06,3.936,0.358
		c2.346,0.771,4.09,2.665,4.77,5.028c0.636,2.215,0.463,5.205-1.203,6.937c-0.812,0.845-1.842,1.627-2.927,2.083
		c-1.188,0.5-2.478,0.641-3.757,0.693c-1.484,0.062-3.041,0.197-4.522,0.068c-0.659-0.057-1.294-0.267-1.944-0.369
		c-0.756-0.117-1.537-0.141-2.299-0.191c-6.139-0.411-12.306,0-18.453,0.007c-3.041,0.003-6.06,0.456-9.103,0.384
		c-0.745-0.017-1.489-0.062-2.229-0.148c-0.563-0.065-0.777-0.5-0.908-0.998c-0.223-0.856,0.154-1.369,1.05-1.36
		c1.442,0.013,2.86-0.16,4.304-0.267c1.501-0.112,2.992-0.031,4.494-0.086c1.507-0.053,2.986-0.106,4.496-0.037
		c1.54,0.072,3.081,0.002,4.62-0.077c3.11-0.16,6.18-0.103,9.288,0.022c1.517,0.062,3.082-0.05,4.586,0.14
		c0.693,0.087,1.379,0.237,2.072,0.329c0.75,0.098,1.515,0.098,2.271,0.106c2.474,0.033,5.717-0.276,7.306-2.462
		c0.732-1.007,1.248-2.288,1.092-3.549c-0.153-1.255-0.967-2.29-1.924-3.068c-1.937-1.572-4.391-1.697-6.754-1.259
		c-1.298,0.24-2.564,0.644-3.766,1.188c-0.581,0.265-1.146,0.561-1.694,0.887c-0.495,0.294-1.139,0.604-1.479,1.083
		c-0.301,0.42-0.204,0.963-0.512,1.403c-0.102,0.145-0.401,0.367-0.223,0.545c0.159,0.158,0.348,0.322,0.456,0.52
		c0.233,0.428-0.19,0.908-0.636,0.855c-0.506-0.059-1.01-0.219-1.363-0.6c-0.365-0.395-0.271-0.902-0.389-1.394
		c-0.057-0.243-0.125-0.485-0.153-0.734c-0.034-0.269,0.026-0.536-0.008-0.804c-0.132-0.961-1.812,0.456-2.101,0.699
		c-0.414,0.352-0.785,0.753-1.088,1.203c-0.348,0.517-0.438,0.976-0.516,1.58c-0.117,0.926-1.146,1.182-1.803,0.557
		c-0.299-0.284-0.571-0.723-0.559-1.148c0.02-0.597,0.082-1.275,0.217-1.857c0.053-0.229,0.105-0.565,0.336-0.657
		c0.186-0.074,0.475-0.204,0.49-0.437C-168.443,126.13-169.258,126.77-169.402,126.98
		C-170.084,127.663-169.382,126.95-169.402,126.98z"/>
	<path fill="#FFFFFF" d="M-238.188,129.447c0.562-0.176,1.17-0.108,1.713-0.348c0.197-0.086,0.51-0.168,0.457-0.447
		c-0.049-0.256-0.535-0.403-0.729-0.508c-0.569-0.31-1.133-0.631-1.673-0.988c-0.566-0.374-1.049-0.891-1.62-1.246
		c-0.522-0.326-1.179-0.238-1.765-0.225c-0.803,0.021-1.605,0.053-2.407,0.096c-0.356,0.019-0.713,0.055-1.069,0.062
		c-0.348,0.01-0.664-0.107-1.002-0.166c-0.736-0.126-1.486-0.105-2.226-0.193c-0.694-0.084-1.382-0.223-2.082-0.266
		c-0.456-0.027-1.134-0.09-0.915,0.559c0.393,1.17,1.434,2.146,2.506,2.713c1.104,0.583,2.35,0.808,3.564,1.037
		c1.455,0.275,2.858,0.115,4.326,0.117C-240.105,129.646-239.152,129.75-238.188,129.447
		C-237.875,129.35-238.662,129.596-238.188,129.447z"/>
	<path fill="#FFFFFF" d="M-232.779,131.582c-0.57-0.292-1.113-0.637-1.625-1.023c-0.525-0.396-0.972-0.853-1.678-0.85
		c-0.607,0.002-1.264,0.199-1.867,0.288c-0.486,0.071-0.962,0.121-1.451,0.146c-0.691,0.033-1.375,0.143-2.062,0.209
		c-0.766,0.074-1.493,0.013-2.258-0.031c-0.705-0.041-1.416-0.016-2.119-0.092c-0.426-0.047-1.303-0.383-1.465,0.261
		c-0.111,0.444,0.537,1.013,0.797,1.317c0.449,0.526,1.018,0.933,1.642,1.231c1.185,0.567,2.444,0.64,3.735,0.584
		c1.506-0.063,3.02-0.049,4.52-0.233c1.398-0.172,2.901-0.406,4.205-0.957c0.32-0.136,0.366-0.199,0.127-0.48
		C-232.416,131.791-232.596,131.676-232.779,131.582C-233.546,131.189-232.482,131.732-232.779,131.582z"/>
	<path fill="#FFFFFF" d="M-204.377,166.45c-0.957,0.944-1.943,1.918-2.777,2.974c-0.799,1.01-1.645,2.217-1.953,3.48
		c-0.154,0.633-0.172,1.287-0.149,1.934c0.009,0.289-0.025,0.645,0.085,0.917c0.117,0.291,0.417,0.541,0.633,0.761
		c0.791,0.812,1.709,1.512,2.768,1.935c1.06,0.422,2.321,0.606,3.443,0.35c1.268-0.292,1.953-1.22,2.658-2.233
		c1.611-2.313,2.523-4.944,3.654-7.504c0.224-0.506,0.355-1.061,0.188-1.604c-0.23,0.082-0.525,0.096-0.716,0.266
		c-0.261,0.232-0.573,0.401-0.919,0.471c-0.672,0.137-1.375-0.081-2.008-0.293c-0.653-0.217-1.285-0.517-1.826-0.947
		c-0.258-0.205-0.452-0.398-0.742-0.553c-0.179-0.094-0.439-0.262-0.322-0.5C-203.137,165.721-203.809,165.889-204.377,166.45
		C-204.895,166.962-203.752,165.834-204.377,166.45z"/>
	<path fill="#FFFFFF" d="M-199.906,156.926c1.053-0.305,1.815-1.072,2.6-1.808c1.017-0.952,1.974-1.968,2.887-3.019
		c0.439-0.504,0.868-1.02,1.289-1.541c0.556-0.687,0.339-1.132-0.072-1.834c-0.373-0.638-0.738-1.279-1.105-1.92
		c-0.287-0.505-0.615-1.375-1.166-1.66c-0.459-0.236-0.863,0.426-1.146,0.679c-0.188,0.165-0.408,0.274-0.662,0.271
		c-0.051,0.285-0.441,0.578-0.635,0.774c-0.926,0.938-2.023,1.675-3.09,2.44c-0.898,0.646-1.869,1.33-2.139,2.469
		c-0.258,1.096,0.131,2.318,0.688,3.262c0.348,0.586,0.822,1.247,1.377,1.652c0.246,0.18,0.555,0.189,0.848,0.207
		c0.067,0.004,0.539,0.08,0.582,0.025C-199.736,156.926-199.822,156.926-199.906,156.926z"/>
	<path fill="#FFFFFF" d="M-200.461,157.68c-0.959,0.944-1.746,2.155-2.432,3.309c-0.662,1.111-1.147,2.291-0.311,3.462
		c0.243,0.34,0.555,0.637,0.848,0.932c0.27,0.269,0.551,0.603,0.883,0.796c0.096,0.057,0.15,0.157,0.225,0.236
		c0.137,0.076,0.271,0.156,0.404,0.236c0.268,0.16,0.533,0.324,0.811,0.468c0.566,0.294,1.209,0.513,1.856,0.483
		c1.255-0.058,2.153-1.308,2.841-2.221c0.387-0.512,0.74-1.047,1.076-1.593c0.152-0.246,0.484-0.638,0.137-0.856
		c-0.475-0.297-1.053-0.457-1.553-0.713c-0.58-0.297-1.194-0.594-1.689-1.025c-0.871-0.756-1.135-1.725-1.307-2.816
		c-0.072-0.453-0.221-0.919-0.697-1.082C-199.85,157.132-200.102,157.326-200.461,157.68
		C-200.566,157.784-200.245,157.467-200.461,157.68z"/>
	<path fill="#FFFFFF" d="M-260.262,205.602c0.277-0.193,0.535-0.416,0.828-0.588c0.175-0.104,0.355-0.142,0.486-0.298
		c0.121-0.146,0.252-0.284,0.406-0.394c0.281-0.198,0.623-0.301,0.911-0.493c0.33-0.222,0.633-0.479,0.95-0.716
		c0.225-0.168,0.596-0.312,0.746-0.557c0.201-0.326-0.223-0.535-0.482-0.545c-0.855-0.027-1.723-0.07-2.575,0.037
		c-0.749,0.096-1.593,0.305-2.213,0.756c-0.601,0.437-0.653,1.318-0.678,1.998c-0.015,0.412,0.004,0.826,0.017,1.238
		c0.006,0.137-0.062,0.535,0.098,0.537c0.125,0.001,0.25-0.039,0.365-0.092C-260.943,206.282-260.66,205.884-260.262,205.602
		C-259.866,205.324-260.407,205.707-260.262,205.602z"/>
	<path fill="#FFFFFF" d="M-254.471,214.132c0.041,0.718-0.074,1.427-0.147,2.136c-0.077,0.766-0.065,1.535-0.089,2.303
		c-0.044,1.503-0.245,2.992-0.271,4.496c-0.012,0.729-0.004,1.457,0.012,2.187c0.01,0.435,0.08,0.931,0.439,1.226
		c0.385,0.316,0.961,0.328,1.43,0.41c0.722,0.129,1.457,0.189,2.19,0.191c0.435,0.001,1.072-0.061,0.744-0.648
		c-0.323-0.578-0.327-1.43-0.397-2.074c-0.162-1.467,0.015-2.992,0.227-4.446c0.167-1.146,0.502-2.271,1.09-3.274
		c0.624-1.066,1.508-1.894,2.496-2.619c1.023-0.752,2.146-1.377,3.363-1.763c1.359-0.43,2.812-0.553,4.223-0.717
		c2.719-0.315,5.454-0.504,7.917-1.808c1.019-0.539,1.946-1.248,2.698-2.123c0.871-1.012,1.484-2.225,2.053-3.424
		c0.288-0.604,0.564-1.219,0.852-1.824c0.084-0.18,0.449-0.709,0.281-0.821c-0.209-0.144-0.449-0.229-0.689-0.308
		c-0.404-0.131-0.84-0.246-1.143-0.562c-0.08-0.084-0.146-0.179-0.201-0.279c-0.1-0.186,0.061-0.183,0.213-0.252
		c0.315-0.142,0.648-0.234,0.961-0.381c0.878-0.404,1.32-1.343,1.596-2.218c0.285-0.907,0.439-1.927,0.259-2.869
		c-0.166-0.873-0.838-1.812-1.817-1.789c-1.215,0.03-1.818,1.392-2.234,2.334c-0.561,1.271-0.757,2.667-1.426,3.892
		c-0.575,1.053-1.465,1.918-2.54,2.455c-1.207,0.603-2.603,0.727-3.914,0.969c-1.511,0.279-3.022,0.561-4.536,0.822
		c-3.493,0.604-7.096,0.977-10.018,3.181c-1.226,0.924-2.356,2.087-3.013,3.487C-254.475,211.322-254.553,212.718-254.471,214.132
		C-254.416,215.093-254.491,213.796-254.471,214.132z"/>
	<path fill="#FFFFFF" d="M-226.973,172.818c0.1,0.136,0.16,0.121,0.18-0.043C-226.854,172.786-226.914,172.801-226.973,172.818
		C-226.934,172.854-226.911,172.798-226.973,172.818z"/>
	<path fill="#FFFFFF" d="M-162.132,200.064c-0.386,0.016-0.608-0.174-0.671-0.547c-0.084-0.484-0.379-0.867-0.775-1.146
		c-0.412-0.291-0.844-0.523-1.201-0.889c-0.158-0.164-0.302-0.342-0.422-0.535c-0.131-0.209-0.205-0.514-0.41-0.662
		c-0.367-0.27-0.748,0.223-0.943,0.477c-0.356,0.467-0.661,0.104-1.116,0.277c-0.392,0.148-0.713,0.629-0.968,0.941
		c-0.323,0.397-0.649,0.811-1.104,1.071c-0.229-0.804-0.451-1.563-0.961-2.237c-0.514-0.681-0.982-1.408-1.193-2.242
		c-0.064-0.256-0.113-0.746-0.478-0.445c-0.308,0.254-0.583,0.544-0.826,0.857c-0.522,0.674-0.896,1.445-1.227,2.225
		c-0.78-0.468-1.321-1.166-1.658-2.003c-0.392-0.976-0.271-2.089-0.794-3.019c-0.826,0.828-0.789,2.183-1.732,2.926
		c-0.316-0.564-0.707-1.131-0.961-1.725c-0.15-0.355,0.24-0.345,0.449-0.226c0.168,0.099,0.348,0.217,0.539,0.264
		c0.338,0.082,0.441-0.417,0.521-0.644c0.246-0.694,0.344-1.436,0.264-2.169c-0.076-0.693-0.344-1.287-0.59-1.931
		c-0.242-0.629-0.271-1.246-0.278-1.91c-0.005-0.325-0.006-0.652,0.036-0.977c0.033-0.263,0.211-0.582,0.182-0.84
		c-0.061-0.504-1.13,0.021-1.34,0.158c-0.993,0.639-0.891,2.086-0.927,3.127c-0.046,1.285,0.062,2.838,0.802,3.943
		c0.104,0.153,0.314,0.612-0.07,0.602c-0.24-0.008-0.379-0.448-0.47-0.617c-0.321-0.594-0.544-1.223-0.841-1.824
		c-0.189-0.385-0.438-0.293-0.734-0.062c-0.389,0.302-0.688,0.819-1.217,0.881c-0.124-0.688-0.207-1.385-0.332-2.072
		c-0.138-0.741-0.382-1.448-0.574-2.178c-0.18-0.681-0.324-1.371-0.406-2.072c-0.039-0.342,0.125-1.52-0.389-1.553
		c-0.527-0.033-0.838-0.419-1.117-0.817c-0.334-0.476-0.617-0.73-1.088-0.259c-0.895,0.894-1.492,2.035-2.801,2.392
		c-1.197,0.326-2.498-0.178-3.596-0.635c-0.588-0.244-1.156-0.539-1.688-0.889c-0.252-0.165-0.541-0.257-0.771-0.45
		c-0.254-0.213-0.487-0.437-0.744-0.646c-0.979-0.803-1.137-1.963-1.189-3.151c-0.033-0.722-0.021-1.448,0.073-2.166
		c0.031-0.246,0.205-0.737,0.011-0.942c-0.285-0.3-0.438-0.031-0.607,0.211c-0.727,1.043-1.401,2.209-2.516,2.885
		c-0.946,0.572-2.09,0.82-3.189,0.691c-1.291-0.149-2.449-0.841-3.521-1.529c-1.076-0.69-2.328-1.459-2.596-2.81
		c-0.253-1.278,0.354-2.692,0.941-3.799c0.111-0.21,0.162-0.461-0.114-0.571c-0.281-0.111-0.644,0.146-0.896,0.244
		c-0.664,0.256-1.324,0.573-2.009,0.764c-1.173,0.326-2.339-0.03-3.176-0.898c-0.378-0.393-0.7-0.777-1.241-0.947
		c-0.641-0.199-1.354-0.044-2.006,0.016c-2.99,0.272-5.982,0.35-8.982,0.414c-1.533,0.033-3.065,0.067-4.599,0.102
		c-1.276,0.027-2.817-0.137-3.971,0.516c0.78,0.168,1.522,0.191,2.319,0.258c0.945,0.078,1.886,0.213,2.82,0.373
		c0.936,0.16,1.867,0.344,2.799,0.521c0.406,0.077,0.814,0.169,1.226,0.215c0.245,0.028,0.45,0.11,0.383,0.396
		c0.571-0.133,1.09,0.086,1.642,0.201c0.233,0.047,0.514-0.043,0.727,0.041c0.177,0.07,0.333,0.418,0.064,0.479
		c-0.199,0.047-0.453-0.056-0.652-0.08c-0.285-0.034-0.573-0.051-0.855-0.103c-0.299-0.055-0.589-0.149-0.846-0.312
		c-0.157-0.1-0.525,0.012-0.78-0.027c-2.972-0.457-5.92-1.091-8.915-1.402c-1.486-0.155-2.895,0.009-4.342,0.359
		c-1.164,0.281-2.314,0.592-3.259,1.362c-1.003,0.817-1.609,2.035-2.114,3.198c-0.559,1.285-0.958,2.633-1.333,3.98
		c-0.192,0.69-0.258,1.387-0.299,2.1c-0.046,0.775-0.167,1.509-0.313,2.271c-0.281,1.448-0.459,2.896-0.804,4.332
		c-0.343,1.429-0.717,2.856-0.965,4.304c-0.116,0.68-0.417,1.302-0.685,1.931c-0.303,0.713-0.615,1.421-0.941,2.123
		c-0.571,1.227-1.202,2.366-2.094,3.396c-0.83,0.955-1.786,1.84-2.782,2.623c-0.501,0.396-1.065,0.699-1.601,1.047
		c-0.604,0.392-1.164,0.85-1.764,1.25c-0.787,0.525-1.661,1.225-2,2.129c-0.507,1.352-0.414,2.944-0.458,4.363
		c-0.048,1.53-0.094,3.061-0.134,4.594c-0.079,3.065-0.115,6.135-0.122,9.201c-0.003,1.536,0,3.073,0.002,4.609
		c0.001,0.723,0.006,1.441-0.041,2.163c-0.028,0.444-0.167,1.435,0.292,1.729c0.423,0.27,1.262,0.12,1.736,0.123
		c0.795,0.008,1.588-0.001,2.381,0.008c1.541,0.013,3.081,0.047,4.621,0.047c1.543,0.002,3.086-0.008,4.63-0.01
		c0.712,0,1.45,0.061,2.155-0.057c0.561-0.093,1.4-0.139,1.854-0.509c0.449-0.369,0.633-1.033,0.756-1.575
		c0.16-0.705,0.155-1.438-0.013-2.141c-0.257-1.082-0.849-2.151-1.947-2.553c-0.545-0.199-1.12-0.175-1.692-0.188
		c-0.795-0.021-1.59-0.052-2.385-0.099c-0.732-0.045-1.465-0.1-2.195-0.174c-0.652-0.066-1.342-0.099-1.973-0.289
		c-0.882-0.268-1.283-0.947-1.365-1.832c-0.062-0.67,0.033-1.371,0.08-2.041c0.056-0.772,0.067-1.541,0.076-2.317
		c0.016-1.53,0.16-3.058,0.234-4.585c0.055-1.146,0.023-2.288,0.115-3.432c0.086-1.08,0.234-2.209,0.639-3.222
		c0.514-1.286,1.555-2.081,2.534-3.003c1.825-1.717,4.18-2.871,6.669-3.225c0.682-0.098,1.38-0.086,2.05-0.263
		c0.749-0.196,1.506-0.358,2.269-0.502c1.463-0.274,2.938-0.479,4.401-0.745c2.367-0.431,4.886-0.861,5.972-3.269
		c0.592-1.31,1.037-2.663,1.563-3.996c0.437-1.104,1.19-2.172,2.466-2.304c1.062-0.108,2.167,0.367,2.553,1.406
		c0.412,1.106,0.483,2.477,0.209,3.617c-0.141,0.578-0.383,1.129-0.709,1.627c-0.155,0.235-0.322,0.479-0.535,0.668
		c-0.133,0.117-0.535,0.553-0.164,0.571c1.305,0.067,2.007-0.786,2.732-1.743c0.438-0.574,0.928-1.48,1.717-1.6
		c0.084,0.535-0.388,1.094-0.533,1.593c-0.207,0.71-0.227,1.459-0.09,2.185c0.248,1.318,1,2.48,1.231,3.803
		c0.056,0.314,0.08,0.636,0.065,0.953c-0.008,0.177-0.06,0.476,0.197,0.496c0.512,0.043,0.875-0.813,1.028-1.183
		c0.435-1.036,0.599-2.339,1.476-3.133c0.178-0.159,0.387-0.283,0.614-0.354c0.128-0.043,0.263-0.067,0.396-0.082
		c0.061,0.133,0.08,0.275,0.057,0.42c-0.043,0.261-0.186,0.498-0.246,0.756c-0.093,0.39-0.143,0.787-0.16,1.188
		c-0.029,0.633-0.029,1.326,0.193,1.926c0.166,0.445,0.561,1.139,1.059,1.28c0.436,0.123,0.553-0.627,0.648-0.887
		c0.212-0.582,0.542-1.113,0.943-1.585c0.828-0.971,1.936-1.676,2.947-2.438c0.914-0.688,0.942,1.481,0.939,1.936
		c-0.006,0.729-0.01,1.459,0,2.188c0.008,0.697,0.02,1.398,0.38,2.02c0.188,0.32,0.728,0.904,1.12,0.482
		c0.125-0.135,0.13-0.344,0.141-0.518c0.018-0.292,0.084-0.576,0.16-0.859c0.303-1.141,0.918-2.299,1.938-2.957
		c0.363-0.236,0.9-0.396,1.334-0.262c0.156,0.049,0.074,0.547,0.086,0.674c0.033,0.375,0.104,0.749,0.062,1.125
		c-0.133,1.239,0.098,2.784,0.896,3.791c0.254,0.322,0.847,0.35,0.918-0.124c0.086-0.567,0.217-1.188,0.457-1.716
		c0.248-0.54,0.593-1.027,0.928-1.516c0.307-0.444,0.619-0.908,1.158-1.092c0.195-0.066,0.406-0.09,0.611-0.072
		c0.293,0.022,0.113,0.297-0.018,0.424c-0.364,0.355-0.214,1.365-0.198,1.834c0.017,0.492-0.087,1.236,0.125,1.688
		c0.226,0.482,0.812,0.409,0.976-0.072c0.162-0.477,0.393-0.967,0.791-1.287c0.465-0.372,0.998-0.655,1.468-1.021
		c0.425-0.333,0.819-0.708,1.126-1.152c0.087-0.123,0.165-0.254,0.234-0.387c0.121,0.033,0.235,0.092,0.326,0.182
		c0.141,0.145,0.185,0.34,0.248,0.522c0.387,1.099,1.454,1.709,2.088,2.646c0.141,0.207,0.268,0.423,0.377,0.646
		c0.104,0.209,0.172,0.568,0.389,0.693c0.426,0.246,0.759-0.748,0.824-1.001c0.313-1.22-0.166-2.64-0.312-3.86
		c-0.122-1-0.094-2.018,0.828-2.641c0.314,1.047,0.854,2.049,1.376,3.004c0.412,0.751,0.866,1.775,1.556,2.322
		c0.227-0.654,0.5-1.271,0.635-1.952c0.142-0.704,0.369-1.388,0.64-2.052c0.248-0.611,0.528-1.209,0.81-1.807
		c0.131-0.283,0.247-0.582,0.409-0.852c0.166-0.272,0.425-0.467,0.593-0.728c0.092-0.14,0.435-0.321,0.498-0.055
		c0.059,0.243-0.07,0.628-0.082,0.885c-0.035,0.692,0.014,1.388,0.149,2.067c0.271,1.343,0.938,2.5,1.562,3.701
		c0.606,1.174,1.176,2.379,1.489,3.668c0.153,0.629,0.243,1.272,0.253,1.92c0.006,0.328,0.201,0.635,0.232,0.975
		c0.035,0.372-0.02,0.745-0.105,1.105c-0.328,1.379-0.799,2.717-1.234,4.061c-0.394,1.213-0.639,2.484-1.209,3.635
		c-0.551,1.106-1.633,1.848-1.889,3.096c-0.111,0.541-0.13,1.166,0.021,1.703c0.184,0.654,0.646,0.644,1.191,0.85
		c0.907,0.345,1.412,1.234,1.406,2.181c-0.007,1.199-0.872,2.154-0.936,3.354c-0.021,0.422-0.012,0.982,0.205,1.363
		c0.217,0.377,0.705,0.42,1.093,0.461c1.512,0.166,3.032,0.082,4.549,0.093c1.547,0.011,3.09,0.097,4.638,0.097
		c1.555-0.001,3.11-0.02,4.666,0.031c1.069,0.035,1.871-0.503,2.426-1.389c0.729-1.164,0.797-2.494,0.64-3.826
		c-0.104-0.889-0.335-1.803-1.194-2.25c-1.06-0.551-2.414-0.33-3.561-0.385c-1.028-0.047-2.006-0.437-2.614-1.295
		c-0.349-0.492-0.506-1.08-0.829-1.589c-0.361-0.569-0.551-1.222-0.582-1.895c-0.062-1.376,0.344-2.833,0.635-4.169
		c0.312-1.426,0.685-2.838,1.127-4.229c0.355-1.113,0.803-2.189,1.183-3.291c0.321-0.934,1.01-2.184,0.157-3.02
		c-0.209-0.208-0.34-0.682-0.69-0.689c-0.455-0.012-0.479,0.539-0.513,0.863c-0.1,0.98-0.524,1.904-1.188,2.633
		c-0.611,0.674-1.314,1.374-2.27,1.457c-0.234,0.02-0.471,0.006-0.701-0.033c-0.27-0.047-0.188-0.352-0.094-0.552
		c0.24-0.513,0.535-0.942,0.646-1.515c0.437-2.223-1.385-4.279-2.049-6.285c-0.425,0.354-0.619,0.848-0.718,1.379
		c-0.047,0.244-0.076,0.49-0.127,0.736c-0.022,0.117-0.053,0.233-0.09,0.35c-0.062,0.188-0.055,0.246-0.239,0.156
		c-0.703-0.35-1.207-1.031-1.55-1.717c-0.603-1.203-1.09-3.379,0.224-4.326c0.136-0.098,0.356-0.291,0.465-0.09
		c0.104,0.19-0.194,0.447-0.28,0.596c-0.338,0.598-0.483,1.275-0.396,1.959c0.08,0.617,0.329,1.203,0.631,1.744
		c0.451,0.81,0.74,0.146,0.972-0.404c0.186-0.436,1.639-3.18,2.369-2.25c0.206,0.262-0.23,0.887-0.285,1.167
		c-0.137,0.688-0.011,1.377,0.239,2.022c0.535,1.391,1.409,2.615,1.486,4.149c0.017,0.343-0.007,0.688-0.072,1.022
		c-0.044,0.228-0.248,0.597-0.108,0.818c0.323,0.516,1.162-0.136,1.395-0.425c0.395-0.489,0.723-1.032,0.941-1.622
		c0.233-0.631,0.264-1.251,0.338-1.91c0.076-0.699,0.281-1.397,0.478-2.072c0.16-0.557,0.505-0.994,0.999-1.299
		c0,0.363,0.059,0.736,0.008,1.099c-0.062,0.457-0.125,0.862-0.016,1.321c0.21,0.891,0.822,1.65,1.379,2.353
		c0.279,0.353,0.566,0.697,0.848,1.046c0.18,0.221,0.447,0.746,0.795,0.432c0.234-0.213,0.154-0.738,0.189-1.017
		c0.061-0.469,0.178-0.929,0.339-1.373c0.287-0.797,0.679-1.662,1.249-2.298c0.581-0.646,1.342-1.094,1.979-1.678
		c0.621-0.569,1.146-1.239,1.554-1.977C-162.355,201.646-161.451,200.041-162.132,200.064
		C-162.619,200.083-161.756,200.052-162.132,200.064z"/>
	<path fill="#FFFFFF" d="M-184.014,157.083c-0.637,0.173-1.303,0.235-1.959,0.167c-0.736-0.076-1.338-0.375-2.027-0.6
		c-0.244-0.078-1.445-0.023-1.104-0.625c0.285-0.498,1.303-0.645,1.807-0.731c1.223-0.213,1.748-1.071,2.396-2.013
		c0.309-0.445,0.674-0.854,1.104-1.184c0.496-0.379,1.082-0.562,1.608-0.885c0.246-0.15,0.479-0.324,0.686-0.525
		c0.205-0.198,0.355-0.483,0.588-0.648c0.393-0.279,1.114,0.416,1.335,0.707c0.378,0.492,0.712,0.92,1.206,1.311
		c0.482,0.383,0.984,0.813,1.645,0.779c0.162-0.009,0.318,0.03,0.291-0.173c-0.014-0.099-0.053-0.188-0.123-0.257
		c-0.131-0.124-0.317-0.154-0.481-0.213c-0.504-0.182-0.981-0.547-1.365-0.914c-0.78-0.738-1.319-1.719-1.552-2.766
		c-0.206-0.933-0.264-2.185,0.331-2.996c0.657-0.9,2.063-0.986,3.062-0.752c1.236,0.293,2.203,1.221,3.422,1.596
		c1.351,0.418,2.681,0.236,4.058,0.093c3.065-0.315,6.149-0.714,9.235-0.604c1.539,0.055,3.072,0.211,4.595,0.439
		c1.317,0.197,2.76,0.707,4.087,0.391c0.527-0.125,1.027-0.342,1.52-0.57c0.506-0.234,1.051-0.439,1.524-0.732
		c0.461-0.286,0.92-0.667,1.478-0.743c0.539-0.073,1.043,0.224,1.442,0.554c0.797,0.653,1.011,1.655,0.843,2.64
		c-0.185,1.093-0.871,1.946-1.656,2.69c-0.42,0.398-0.873,0.762-1.363,1.068c-0.309,0.193-0.73,0.633-0.17,0.846
		c0.904,0.344,1.531,1.032,1.924,1.899c0.421,0.938,0.672,1.971,0.943,2.96c0.153,0.559,0.271,1.141,0.582,1.635
		c0.291,0.463,0.674,0.876,0.85,1.402c-1.141,0.447-2.057-0.831-2.54-1.684c-0.278-0.489-1.353-2.949-2.179-2.021
		c1.011,0.656,1.574,1.71,1.977,2.812c0.196,0.535,0.33,1.106,0.626,1.6c0.334,0.556,0.866,0.918,1.272,1.414
		c0.765,0.934,1.074,2.084,1.168,3.267c0.057,0.714,0.084,1.433,0.033,2.149c-0.028,0.391,0.004,1.322-0.441,1.531
		c-0.387,0.182-0.979-0.113-1.268-0.354c-0.498-0.412-0.72-1.079-0.91-1.671c-0.09-0.277-0.674-1.335-0.305-1.492
		c0.237-0.102,0.62,0.123,0.831,0.223c0.33,0.157,0.585,0.432,0.903,0.59c0.255,0.129,0.527-0.102,0.466-0.371
		c-0.065-0.291-0.252-0.576-0.346-0.864c-0.218-0.677-0.341-1.383-0.609-2.043c-0.452-1.122-1.288-2.058-2.317-2.688
		c-1.262-0.775-2.111,0.262-2.631,1.371c-0.615,1.316-1.062,2.707-1.681,4.023c-0.589,1.25-1.353,2.41-2.211,3.492
		c-0.791,0.996-1.679,1.931-2.776,2.593c-0.98,0.592-2.439,1.084-3.522,0.442c-0.786-0.467-1.263-1.53-1.015-2.422
		c0.164-0.592,0.594-0.648,1.082-0.9c0.521-0.268,0.985-0.639,1.271-1.156c0.1-0.177,0.225-0.439,0.068-0.622
		c-0.17-0.2-0.363-0.121-0.483,0.07c-0.285,0.448-0.617,0.817-1.135,0.997c-0.771,0.267-1.771,0.172-2.568,0.111
		c-0.756-0.057-1.35-0.459-1.633-1.166c-0.239,0.409-0.438,0.867-0.104,1.281c0.393,0.48,0.994,0.7,1.586,0.816
		c0.301,0.059,0.73,0.085,0.965,0.312c0.244,0.234,0.279,0.733,0.314,1.044c0.315,2.66-3.779,2.293-5.297,1.537
		c-1.162-0.578-1.838-1.675-2.596-2.676c-0.874-1.156-1.82-2.318-2.484-3.609c-0.303-0.587-0.541-1.203-0.754-1.826
		c-0.076-0.228-0.355-1.688-0.832-1.25c-0.58,0.53,0.816,2.266-0.449,2.283c-1.385,0.019-2.76-0.643-4.117-0.109
		c-0.351,0.139-0.899,0.496-1.082-0.059c-0.152-0.47,0.019-1.033,0.217-1.464c0.435-0.94,1.269-1.815,2.249-2.192
		c0.426-0.164,1.052-0.017,1.411-0.278c0.584-0.425-0.623-0.89-0.906-0.927c-1.288-0.174-2.676,0.041-3.822,0.654
		c-0.247,0.131-0.455,0.277-0.738,0.25c-0.164-0.226-0.146-0.519-0.072-0.771c0.16-0.555,0.428-1.107,0.72-1.605
		c0.563-0.964,1.485-1.958,2.616-2.224c0.568-0.134,1.21,0.032,1.755-0.136c0.185-0.058,0.306-0.271,0.177-0.445
		c-0.148-0.202-0.529-0.199-0.748-0.219c-2.562-0.213-4.289,2.25-5.068,4.361c-0.223,0.601-0.385,1.223-0.471,1.856
		c-0.07,0.522,0.062,1.255-0.324,1.673c-0.367,0.396-1.041,0.701-1.523,0.939c-0.576,0.285-1.162,0.382-1.786,0.498
		c-0.597,0.109-1.192,0.259-1.733,0.537c-0.416,0.213-0.972,0.918-1.482,0.646c-0.965-0.512-0.156-2.088,0.219-2.73
		c0.555-0.951,1.344-1.801,2.283-2.381c0.945-0.584,2.061-0.688,2.877-1.503c-0.645-0.293-1.286,0.235-1.904,0.401
		c-0.727,0.195-1.484,0.245-2.234,0.195c-0.723-0.047-1.412-0.233-2.118-0.377c-0.265-0.055-0.804-0.01-1.011-0.185
		c-0.19-0.162-0.137-0.476,0.027-0.633c0.48-0.468,1.169-0.653,1.801-0.819c0.791-0.209,1.603-0.343,2.412-0.458
		c0.773-0.108,1.506-0.297,2.262-0.45c0.236-0.047,0.484-0.191,0.398-0.47C-183.588,156.766-183.863,157.005-184.014,157.083
		C-185.343,157.443-183.84,156.994-184.014,157.083z"/>
	<path fill="#FFFFFF" d="M-171.302,155.529c-0.161,0.287,0.085,0.439,0.276,0.63c0.279,0.28,0.567,0.552,0.862,0.815
		c0.632,0.563,1.296,1.092,1.981,1.588c0.925,0.668,2.105,1.5,2.906,0.217c0.271-0.432,0.646-1.17,0.551-1.698
		c-0.092-0.501-1.217-0.481-1.572-0.548c-0.819-0.153-1.633-0.333-2.443-0.526C-169.533,155.818-170.477,155.41-171.302,155.529
		C-171.428,155.753-170.781,155.454-171.302,155.529z"/>
	<path fill="#FFFFFF" d="M-151.396,155.986c-0.373-0.135-0.773-0.008-1.144,0.074c-0.411,0.094-0.819,0.188-1.229,0.285
		c-0.879,0.205-1.756,0.416-2.633,0.622c-0.392,0.093-1.021,0.144-1.322,0.452c-0.258,0.266,0.08,0.725,0.225,0.957
		c0.316,0.514,0.686,1.077,1.284,1.291c0.612,0.219,1.225-0.077,1.69-0.469c0.631-0.533,1.188-1.154,1.789-1.719
		c0.281-0.264,0.572-0.521,0.877-0.76C-151.613,156.523-151.254,156.361-151.396,155.986
		C-151.762,155.854-151.279,156.291-151.396,155.986z"/>
</g>
<g id="Eyes">
	<path fill="#003359" d="M-171.302,155.529c0.776-0.112,1.643,0.259,2.389,0.438c0.868,0.208,1.739,0.403,2.617,0.567
		c0.354,0.065,1.396,0.047,1.555,0.483c0.185,0.5-0.276,1.356-0.532,1.764c-0.801,1.281-1.981,0.451-2.906-0.217
		c-0.641-0.465-1.262-0.955-1.854-1.478c-0.297-0.262-0.588-0.53-0.87-0.81C-171.115,156.074-171.484,155.854-171.302,155.529
		C-170.781,155.454-171.428,155.753-171.302,155.529z"/>
	<path fill="#003359" d="M-151.396,155.986c0.121,0.318-0.107,0.462-0.332,0.63c-0.309,0.233-0.603,0.487-0.887,0.75
		c-0.609,0.562-1.18,1.165-1.791,1.725c-0.428,0.392-0.992,0.74-1.598,0.632c-0.67-0.121-1.094-0.709-1.432-1.244
		c-0.147-0.231-0.504-0.682-0.349-0.981c0.181-0.349,0.88-0.413,1.205-0.49c0.879-0.205,1.755-0.416,2.634-0.622
		c0.408-0.097,0.818-0.191,1.229-0.285C-152.299,156.006-151.82,155.833-151.396,155.986
		C-151.279,156.291-151.762,155.854-151.396,155.986z"/>
</g>
<g id="Pupils">
	<path fill="#FFFFFF" d="M-168.844,156.826c0.729-0.035,1.438,0.16,2.132,0.354c0.597,0.164,1.267,0.27,0.772,0.998
		c-0.349,0.518-0.92,0.568-1.416,0.217c-0.326-0.233-0.633-0.494-0.935-0.759c-0.129-0.112-0.258-0.228-0.388-0.341
		C-168.904,157.098-168.951,157.105-168.844,156.826C-167.883,156.779-168.875,156.907-168.844,156.826z"/>
	<path fill="#FFFFFF" d="M-154.008,157.346c-0.352,0.842-1.666,2.198-2.574,1.235c-0.152-0.161-0.275-0.404-0.246-0.632
		c0.041-0.328,0.398-0.363,0.656-0.428C-155.457,157.343-154.742,157.178-154.008,157.346
		C-154.305,158.057-154.921,157.139-154.008,157.346z"/>
</g>
<text transform="matrix(1 0 0 1 -123.5 167.5)"><tspan x="0" y="0" fill="#FFFFFF" font-family="'AureaTitling'" font-size="36">ST. MARKS</tspan><tspan x="0" y="43.2" fill="#FFFFFF" font-family="'AureaTitling'" font-size="36">SCHOOL</tspan></text>
</svg>
